<?xml version="1.0" encoding="UTF-8" standalone="no"?>
<svg
   width="210mm"
   height="297mm"
   viewBox="0 0 210 297"
   version="1.1"
   id="svg14868"
   inkscape:version="1.2.2 (b0a8486541, 2022-12-01)"
   sodipodi:docname="medeco.svg"
   xml:space="preserve"
   xmlns:inkscape="http://www.inkscape.org/namespaces/inkscape"
   xmlns:sodipodi="http://sodipodi.sourceforge.net/DTD/sodipodi-0.dtd"
   xmlns:xlink="http://www.w3.org/1999/xlink"
   xmlns="http://www.w3.org/2000/svg"
   xmlns:svg="http://www.w3.org/2000/svg"
   xmlns:rdf="http://www.w3.org/1999/02/22-rdf-syntax-ns#"
   xmlns:cc="http://creativecommons.org/ns#"
   xmlns:dc="http://purl.org/dc/elements/1.1/"><sodipodi:namedview
     id="base"
     pagecolor="#ffffff"
     bordercolor="#666666"
     borderopacity="1.0"
     inkscape:pageopacity="0.0"
     inkscape:pageshadow="2"
     inkscape:zoom="0.35355337"
     inkscape:cx="-224.85997"
     inkscape:cy="390.32296"
     inkscape:document-units="mm"
     inkscape:current-layer="layer1"
     showgrid="false"
     inkscape:window-width="1910"
     inkscape:window-height="1009"
     inkscape:window-x="0"
     inkscape:window-y="35"
     inkscape:window-maximized="1"
     inkscape:document-rotation="0"
     inkscape:showpageshadow="0"
     inkscape:pagecheckerboard="0"
     inkscape:deskcolor="#d1d1d1"
     showguides="true" /><defs
     id="defs14862"><clipPath
       clip-path="url(#clipPathH)"
       id="clipPathJ"
       clipPathUnits="userSpaceOnUse"><use
         height="100%"
         width="100%"
         y="0"
         x="0"
         xlink:href="#path11026"
         id="use6" /></clipPath><marker
       id="Arrow1Lstart"
       orient="auto"
       refX="0.0"
       refY="0.0"
       style="overflow:visible"
       inkscape:stockid="Arrow1Lstart"><path
         d="M 0.0,0.0 L 5.0,-5.0 L -12.5,0.0 L 5.0,5.0 L 0.0,0.0 z "
         transform="matrix(0.8 0 0 0.8 10 0)"
         style="fill-rule:evenodd;stroke:#000000;stroke-width:1.0pt;marker-start:none"
         id="path1" /></marker><marker
       id="Arrow1Lend"
       orient="auto"
       refX="0.0"
       refY="0.0"
       style="overflow:visible"
       inkscape:stockid="Arrow1Lend"><path
         d="M 0.0,0.0 L 5.0,-5.0 L -12.5,0.0 L 5.0,5.0 L 0.0,0.0 z "
         transform="matrix(-0.8 9.79685e-17 -9.79685e-17 -0.8 -10 1.22461e-15)"
         style="fill-rule:evenodd;stroke:#000000;stroke-width:1.0pt;marker-start:none"
         id="path2" /></marker></defs><metadata
     id="metadata14865"><rdf:RDF><cc:Work
         rdf:about=""><dc:format>image/svg+xml</dc:format><dc:type
           rdf:resource="http://purl.org/dc/dcmitype/StillImage" /></cc:Work></rdf:RDF></metadata><g
     inkscape:label="Layer 1"
     inkscape:groupmode="layer"
     id="layer1"><path
   inkscape:connector-curvature="0"
   style="fill:#ff0000;stroke:#000000;stroke-width:0.0881944;stroke-linecap:round;stroke-linejoin:round;stroke-miterlimit:10;stroke-dasharray:none;stroke-opacity:1"
   d="m 16.225605,52.158369 -1.608688,0.1695 -1.523937,0.59272 -1.354956,0.93121 -1.100708,1.27021 -0.7617115,0.76171 -1.0159582,0.50798 -1.100708,0.1695 -1.439189,0.25373 -1.439705,0.42375 -1.269691,0.84646 -1.015958,1.01596 -0.846977,1.35443 -0.507979,1.35496 -0.168982,1.52394 0.168982,1.52394 0.507979,1.35495 0.846977,1.26969 1.015958,1.10071 1.269691,0.84698 1.439705,0.42323 1.439189,0.16898 1.100708,0.25425 1.0159582,0.50798 0.7617115,0.76171 1.100708,1.2702 1.354956,0.93121 1.523937,0.59273 1.608688,0.1695 h 6.603732 l 0.931725,-0.1695 0.84646,-0.33848 0.677477,-0.67748 0.507981,-0.76171 0.25373,-0.93172 0.254249,-2.28565 0.25373,-0.67748 0.677479,-0.42323 0.762227,-0.0847 0.67696,0.42323 0.507981,0.50798 0.592728,0.339 0.677479,0.0842 0.592727,-0.25373 0.42323,-0.50798 0.169498,-0.67748 v -0.93121 -0.42323 -0.1695 l 0.253733,-0.0847 h 25.738997 l 0.168981,-0.0848 0.1695,-0.0847 0.762228,-0.93121 0.338479,-0.59273 0.1695,-0.59273 -0.1695,-0.59221 -0.338479,-0.50798 -2.455664,-2.8789 -0.253733,-0.0847 H 31.888731 31.634998 v -0.25373 -0.25425 -1.01595 l -0.169498,-0.67748 -0.42323,-0.50798 -0.592727,-0.25373 -0.677479,0.0847 -0.592728,0.33848 -0.507981,0.50798 -0.67696,0.42323 -0.762227,-0.0847 -0.677479,-0.42323 -0.25373,-0.67748 -0.254249,-2.28565 -0.25373,-0.93173 -0.507981,-0.76171 -0.677477,-0.67747 -0.84646,-0.33848 -0.931725,-0.1695 z m -8.8898967,7.95868 1.015958,0.1695 0.8464602,0.50798 0.677478,0.67748 0.5079795,0.84646 0.169499,1.01596 -0.169499,1.01596 -0.5079795,0.84698 -0.677478,0.67696 -0.8464602,0.50797 -1.015958,0.0848 -1.015959,-0.0848 -0.846977,-0.50797 -0.676961,-0.67696 -0.508496,-0.84698 -0.08423,-1.01596 0.08423,-1.01596 0.508496,-0.84646 0.676961,-0.67748 0.846977,-0.50798 z"
   id="outline_1543"
   inkscape:label="#outline_1543" /><path
   inkscape:connector-curvature="0"
   style="fill:#ff0000;stroke:#000000;stroke-width:0.0881944;stroke-linecap:round;stroke-linejoin:round;stroke-miterlimit:10;stroke-dasharray:none;stroke-opacity:1"
   d="m 6.5776214,78.698841 -1.185458,0.1695 -0.931209,0.50798 -0.84646,0.76171 -0.507979,1.01596 -0.169499,1.10071 v 15.40939 l 0.169499,1.10071 0.507979,1.01596 0.84646,0.762229 0.931209,0.50798 1.185458,0.16898 H 23.849434 l 1.185458,-0.16898 0.931209,-0.50798 0.846975,-0.762229 0.507979,-1.01596 0.1695,-1.10071 v -0.16949 l 0.168982,-0.67697 0.507978,-0.50798 0.677479,-0.16949 h 2.455148 l 0.338998,-0.1695 0.168981,-0.42323 v -0.84646 -0.42323 l 0.08475,-0.1695 0.169497,-0.0847 H 57.80085 l 0.254248,-0.0847 0.931209,-1.01596 0.338482,-0.59273 0.08475,-0.59273 -0.08475,-0.59272 -0.338482,-0.59222 -2.455148,-2.87889 -0.254246,-0.0847 H 32.824079 l -0.168982,-0.0847 -0.08475,-0.16898 v -0.1695 -0.84646 l -0.1695,-0.76223 -0.507979,-0.50798 -0.67696,-0.1695 h -2.370916 l -0.677479,-0.16898 -0.507978,-0.50798 -0.168982,-0.67747 v -1.27021 l -0.1695,-1.10071 -0.507979,-1.01596 -0.846975,-0.76171 -0.931209,-0.50798 -1.185458,-0.1695 z m 1.523938,8.46667 0.931209,0.1695 0.762228,0.33848 0.5927276,0.67748 0.42323,0.76171 0.08475,0.84697 -0.08475,0.84646 -0.42323,0.76223 -0.5927276,0.59273 -0.762228,0.42323 -0.931209,0.0847 -0.84646,-0.0847 -0.762228,-0.42323 -0.592728,-0.59273 -0.42323,-0.76223 -0.08475,-0.84646 0.08475,-0.84697 0.42323,-0.76171 0.592728,-0.67748 0.762228,-0.33848 z"
   id="outline_1518"
   inkscape:label="#outline_1518" /><path
   style="fill:#ff0000;stroke:#000000;stroke-width:0.0881944;stroke-linecap:round;stroke-linejoin:round;stroke-miterlimit:10;stroke-dasharray:none;stroke-opacity:1"
   d="m 16.600435,1.268134 -1.693437,0.25373 -1.523939,0.592731 -1.354954,0.931725 -1.100709,1.184941 -0.76171,0.846977 -1.0159594,0.507978 -1.100708,0.168982 -1.439189,0.1695 -1.439705,0.507979 -1.26969,0.762227 -1.015959,1.100709 -0.846977,1.269688 -0.507979,1.439706 -0.168982,1.439188 0.168982,1.523939 0.507979,1.439193 0.846977,1.2702 1.015959,1.01596 1.26969,0.84646 1.439705,0.50798 1.439189,0.1695 1.100708,0.1695 1.0159594,0.50798 0.76171,0.76171 1.100709,1.27021 1.354954,0.9312 1.523939,0.59273 1.693437,0.1695 h 6.518982 l 0.931725,-0.0847 0.84646,-0.42323 0.677479,-0.59273 0.507979,-0.76223 0.25373,-0.9312 0.254249,-1.94717 0.338481,-0.67748 0.677478,-0.42323 h 0.761709 l 0.677479,0.42323 0.42323,0.42323 0.507979,0.42323 0.677479,0.0847 0.592727,-0.25373 0.507979,-0.50798 0.1695,-0.67748 v -1.01596 -0.1695 l 0.25373,-0.0847 h 31.242021 l 0.1695,-0.0847 1.015958,-1.10019 0.338482,-0.507975 0.169497,-0.59273 -0.169497,-0.677476 -0.338482,-0.592731 -3.640606,-4.063833 -0.254246,-0.08475 H 33.787498 33.702748 L 33.364267,8.88844 33.279517,8.97267 H 32.178808 L 31.925078,8.88844 V 8.718943 7.195004 l -0.1695,-0.677479 -0.507979,-0.507978 -0.592727,-0.169498 -0.677479,0.08475 -0.550355,0.380854 -0.380854,0.466122 -0.677479,0.42323 H 27.606997 L 26.929519,6.771775 26.591038,6.009548 26.336789,4.062381 26.083059,3.215402 25.57508,2.453693 24.897601,1.776214 24.051141,1.437733 23.119416,1.268235 Z m -8.9746464,8.128186 0.931209,0.08423 0.93121,0.507979 0.6774784,0.677479 0.42323,0.846976 0.169499,0.931209 -0.169499,1.015961 -0.42323,0.84646 -0.6774784,0.677476 -0.93121,0.423227 -0.931209,0.1695 -0.931726,-0.1695 -0.931209,-0.423227 -0.676962,-0.677476 -0.423746,-0.84646 -0.168982,-1.015961 0.168982,-0.931209 0.423746,-0.846976 0.676962,-0.677479 0.931209,-0.507979 z"
   id="outline_a1517"
   inkscape:connector-curvature="0"
   inkscape:label="#outline_a1517" /><path
   inkscape:connector-curvature="0"
   style="fill:#ff0000;stroke:#000000;stroke-width:0.0881944;stroke-linecap:butt;stroke-linejoin:miter;stroke-miterlimit:10;stroke-dasharray:none;stroke-opacity:1"
   d="m 73.717794,12.696148 c 0,6.176147 4.829302,11.27506 10.997778,11.61221 4.067473,-0.222321 7.722205,-2.55543 9.635071,-6.151046 0.29986,-0.563597 0.886032,-0.915866 1.526005,-0.895035 l 1.187005,0.02066 -0.0026,1.663983 c -0.0024,0.250772 0.225226,0.478345 0.507978,0.507978 h 1.778186 c 0.277971,-0.02963 0.505547,-0.257206 0.507981,-0.507978 l 0.0021,-1.663505 31.411522,-0.0011 1.41335,-1.449567 c 0.27354,-0.306565 0.44235,-0.709819 0.44235,-1.130681 0,-0.39437 -0.14846,-0.774531 -0.37362,-1.062469 L 128.89839,9.5783606 H 99.857799 l -0.0026,-1.446339 c -0.0024,-0.777595 -0.628332,-1.403017 -1.3994,-1.403017 -0.339124,0 -0.666583,0.123399 -0.902787,0.37052 l -0.759689,0.670761 c -0.29905,0.218316 -0.662564,0.355534 -1.038696,0.355534 -0.576084,0 -1.104497,-0.319842 -1.372009,-0.829924 -1.902952,-3.628564 -5.57517,-5.988399 -9.66711,-6.212025 -6.168458,0.337116 -10.997777,5.436029 -10.997777,11.6122134 z m 2.630848,-0.02739 c 0,-1.892194 1.536078,-3.4282144 3.428731,-3.4282144 1.892687,0 3.42873,1.5360204 3.42873,3.4282144 0,1.892194 -1.536043,3.427698 -3.42873,3.427698 -1.892653,0 -3.428731,-1.535504 -3.428731,-3.427698 z"
   id="outline_a1515"
   sodipodi:nodetypes="ccccccccccccsccccsccsccccsssss"
   inkscape:label="#outline_a1515" /><path
   inkscape:connector-curvature="0"
   style="fill:#ff0000;stroke:#000000;stroke-width:0.0881944;stroke-linecap:round;stroke-linejoin:round;stroke-miterlimit:10;stroke-dasharray:none;stroke-opacity:1"
   d="m 74.437005,39.177758 0.33848,2.031915 0.762228,1.94717 1.015958,1.778185 1.354957,1.608688 1.60817,1.270206 1.862935,1.01596 1.947168,0.592728 2.031917,0.338481 1.947686,-0.254248 1.947166,-0.676961 1.778188,-0.846978 1.523937,-1.269688 1.354439,-1.439707 1.100709,-1.69292 0.338997,-0.423746 0.592211,-0.338482 0.592727,-0.169497 h 1.185458 V 44.3423 l 0.1695,0.338998 0.338479,0.168981 h 1.778185 l 0.33848,-0.168981 0.1695,-0.338998 v -1.693111 h 27.26242 l 1.10071,-1.100973 0.339,-0.507979 0.0842,-0.67696 -0.0842,-0.59273 -0.339,-0.592728 -3.81011,-4.23363 -24.55302,6.1e-5 v -1.354722 l -0.25425,-0.761709 -0.592725,-0.507981 -0.761711,-0.169498 -0.677479,0.338998 -0.761709,0.67696 -0.507979,0.338997 -0.59273,0.08423 -0.507979,-0.08423 -0.507978,-0.338997 -0.338997,-0.42323 -1.015961,-1.693437 -1.354439,-1.439188 -1.608685,-1.270206 -1.778188,-0.931209 -1.862418,-0.592732 -2.032434,-0.25373 -2.031917,0.25373 -1.947168,0.677481 -1.862935,1.015957 -1.60817,1.270209 -1.354957,1.523937 -1.015958,1.777669 -0.762228,1.947685 -0.33848,2.116667 z m 2.539896,-1.01596 0.169499,-1.100707 0.507979,-0.931209 0.762228,-0.762227 0.931209,-0.507982 1.100708,-0.169497 1.015958,0.169497 1.015959,0.507982 0.76171,0.762227 0.423747,0.931209 0.168982,1.100707 -0.168982,1.01596 -0.423747,1.015958 -0.76171,0.762227 -1.015959,0.42323 -1.015958,0.168982 -1.100708,-0.168982 -0.931209,-0.42323 -0.762228,-0.762227 -0.507979,-1.015958 z"
   id="outline_1515"
   sodipodi:nodetypes="ccccccccccccccccccccccccccccccccccccccccccccccccccccccccccccccccccccccccccccccccc"
   inkscape:label="#outline_1515" /><path
   id="warding_1515"
   style="fill:#0000ff;stroke:#000000;stroke-width:0.0881944;stroke-linecap:round;stroke-linejoin:round;stroke-miterlimit:10;stroke-dasharray:none;stroke-opacity:1"
   d="m 134.98624,38.925493 -0.254,-0.423334 -0.0847,-0.254 v -0.423333 l 0.0847,-0.423333 0.0847,-0.169334 0.0847,-0.423333 v -1.016 l -0.254,-0.677333 h -1.778 l 0.33867,0.846666 0.0847,0.338667 -0.0847,0.423333 -0.33867,0.677334 v 0.846666 l 0.254,0.762 0.42334,0.508 0.16933,0.508 -0.254,0.423334 -0.33867,0.254 -0.16933,0.338666 -0.0847,0.338667 v 1.27 l 0.254,0.338667 h 1.86267 l 0.16933,-0.169334 v -0.254 l -0.0847,-0.254 -0.16933,-0.169333 -0.59267,-0.08467 -0.16933,-0.169333 -0.0847,-0.254 0.0847,-0.254 0.762,-0.677333 0.16933,-0.338667 0.0847,-0.338667 v -0.423333 z"
   inkscape:connector-curvature="0"
   sodipodi:nodetypes="cccccccccccccccccccccccccccccccccccccc"
   inkscape:label="#warding_1515" /><path
   id="engrave_1515"
   style="opacity:0.489;fill:#00ff00;stroke:#000000;stroke-width:0.0881944;stroke-linecap:round;stroke-linejoin:round;stroke-miterlimit:10;stroke-dasharray:none;stroke-opacity:1"
   d="m 95.857714,38.50042 -0.08467,-1.947368 -0.423333,-1.862667 -0.762,-1.777997 -1.016,-1.524 -1.27,-1.439334 -1.524,-1.185333 -1.693333,-0.846667 -1.862667,-0.592666 -1.862664,-0.254 -1.947334,0.254 -1.862666,0.592666 -1.777999,1.016 -1.524,1.185334 -1.269999,1.524 -1.016,1.693333 -0.677333,1.862664 -0.338667,1.947333 v 1.947334 l 0.338667,1.947333 0.677333,1.862667 1.016,1.69333 1.269999,1.524 1.524,1.27 1.777999,0.931334 1.862666,0.677333 1.947334,0.254 1.862664,-0.254 1.778,-0.592667 1.693333,-0.846666 1.524,-1.185334 1.27,-1.354666 1.016,-1.608664 0.931333,-2.370667 z"
   inkscape:connector-curvature="0"
   sodipodi:nodetypes="ccccccccccccccccccccccccccccccccccc"
   inkscape:label="#engrave_1515" /><path
   id="engrave_a1515"
   style="opacity:0.495;fill:#00ff00;stroke:#000000;stroke-width:0.0881944;stroke-linecap:butt;stroke-linejoin:miter;stroke-miterlimit:10;stroke-dasharray:none;stroke-opacity:1"
   d="m 95.204922,12.696216 c 0,-5.8957634 -4.601914,-10.7670574 -10.489491,-11.1035724 -5.887541,0.336515 -10.489456,5.207809 -10.489456,11.1035724 0,5.895727 4.601915,10.767021 10.489456,11.103536 4.524727,-0.258622 8.440134,-3.235605 10.082898,-8.209647 0.332264,-1.411375 0.406593,-2.151716 0.406593,-2.893889 z"
   inkscape:connector-curvature="0"
   sodipodi:nodetypes="scsccs"
   inkscape:label="#engrave_a1515" />

<path
   id="warding_1517"
   style="fill:#0000ff;stroke:#000000;stroke-width:0.0881944;stroke-linecap:round;stroke-linejoin:round;stroke-miterlimit:10;stroke-dasharray:none;stroke-opacity:1"
   d="m 65.014889,38.757872 v 0.42333 l 0.08463,0.16933 0.931368,0.93134 0.08467,0.254 -0.08467,0.254 -0.169333,0.16933 -0.592667,0.16933 -0.169368,0.0847 -0.08463,0.254 v 0.254 l 0.169333,0.16934 h 1.862667 l 0.254,-0.254 v -0.93134 l -0.0847,-0.33866 -0.677299,-0.762 -0.169333,-0.33867 0.169333,-0.33867 0.338667,-0.508 0.08463,-0.59266 -0.253966,-0.508 -0.254,-0.33867 v -0.59267 l 0.507966,-0.93133 v -1.27 h -1.608666 v 1.69333 l -0.254,0.33867 0.0847,0.67733 0.423299,0.508 0.0847,0.42334 -0.254,0.42333 -0.254,0.254 z"
   inkscape:connector-curvature="0"
   sodipodi:nodetypes="ccccccccccccccccccccccccccccccccccc"
   inkscape:label="#warding_1517" /><path
   id="engrave_a1517"
   style="opacity:0.543;fill:#00ff00;stroke:#000000;stroke-width:0.0881944;stroke-linecap:round;stroke-linejoin:round;stroke-miterlimit:10;stroke-dasharray:none;stroke-opacity:1"
   d="m 9.0649316,6.094111 0.846702,-0.338667 0.7619644,-0.508 0.677369,-0.677331 1.016,-1.185333 1.269998,-0.846667 1.439333,-0.592666 1.524,-0.169334 h 6.519296 l 0.762,0.169334 0.762035,0.254 0.592632,0.592666 0.338701,0.592667 0.254,0.762 1.100667,8.297331 -1.100667,8.297326 -0.254,0.762 -0.338701,0.67734 -0.592632,0.508 -0.762035,0.33866 -0.762,0.0847 h -6.519296 l -1.524,-0.16933 -1.439333,-0.508 -1.269998,-0.93133 -1.016,-1.10067 -0.677369,-0.67733 -0.7619644,-0.59267 -0.846702,-0.33867 -1.015965,-0.0847 -1.354701,-0.16933 -1.269965,-0.508 -1.185333,-0.67733 -1.015999,-1.016 -0.762036,-1.18533 -0.423298,-1.270003 -0.169333,-1.439333 0.169333,-1.354667 0.423298,-1.354667 0.762036,-1.100666 1.015999,-1.016 1.185333,-0.762 1.269965,-0.423334 1.354701,-0.169333 z"
   inkscape:connector-curvature="0"
   sodipodi:nodetypes="ccccccccccccccccccccccccccccccccccccccccccccc"
   inkscape:label="#engrave_a1517" /><path
   inkscape:connector-curvature="0"
   style="fill:#ff0000;stroke:#000000;stroke-width:0.0881944;stroke-linecap:round;stroke-linejoin:round;stroke-miterlimit:10;stroke-dasharray:none;stroke-opacity:1"
   d="m 85.502647,52.196737 -1.862934,0.25373 -1.778186,0.59273 -1.608688,0.93121 -1.523938,1.18546 -1.184941,1.35444 -1.015958,1.69343 -0.762228,1.77819 -0.423229,1.86242 -0.169499,1.86294 0.169499,1.94716 0.423229,1.86294 0.762228,1.77767 1.015958,1.60868 1.184941,1.35496 1.439706,1.18494 1.523938,0.93173 1.777669,0.59272 1.778185,0.33849 h 1.862936 l 1.777669,-0.33849 1.693436,-0.67747 1.608688,-0.84698 1.439188,-1.18494 1.185457,-1.35496 0.931209,-1.60868 0.338998,-0.50798 0.592211,-0.33848 0.592731,-0.0848 h 0.592727 l 0.1695,0.0848 0.08475,0.16949 v 0.67697 l 0.08475,0.339 0.42323,0.16898 h 1.777671 l 0.339,-0.16898 0.16898,-0.339 v -1.22732 -0.29662 l 0.25425,-0.0848 h 25.5695 0.16898 l 0.93172,-0.93121 0.33848,-0.59273 0.1695,-0.67696 -0.0848,-0.59273 -0.339,-0.59273 -2.70887,-2.96364 -0.1695,-0.0842 h -23.19859 l -0.1695,-0.0848 -0.0847,-0.1695 v -0.25425 -0.76171 l -0.25373,-0.76223 -0.59273,-0.50798 -0.762227,-0.0847 -0.677476,0.339 -0.507982,0.42323 -0.507979,0.33848 -0.676959,0.0848 -0.677479,-0.0848 -0.592727,-0.42323 -0.338482,-0.59273 -0.846976,-1.60868 -1.184942,-1.52394 -1.354955,-1.26969 -1.608688,-1.01596 -1.777669,-0.67748 -1.862935,-0.42323 z m -4.318082,8.38192 1.015959,0.16898 0.84646,0.42375 0.762227,0.67696 0.423229,0.93172 0.169499,0.93122 -0.169499,1.01595 -0.423229,0.84646 -0.762227,0.76223 -0.84646,0.42323 -1.015959,0.1695 -0.931726,-0.1695 -0.931209,-0.42323 -0.676961,-0.76223 -0.423747,-0.84646 -0.168982,-1.01595 0.168982,-0.93122 0.423747,-0.93172 0.676961,-0.67696 0.931209,-0.42375 z"
   id="outline_1542"
   inkscape:label="#outline_1542" />
<path
   id="engrave_1542"
   style="opacity:0.432;fill:#00ff00;stroke:#000000;stroke-width:0.0881944;stroke-linecap:round;stroke-linejoin:round;stroke-miterlimit:10;stroke-dasharray:none;stroke-opacity:1"
   d="m 96.255119,64.642557 v -1.86266 l -0.169333,-1.778 -0.423333,-1.778 -0.846702,-1.60867 -1.016,-1.524 -1.354666,-1.18533 -1.523964,-1.016 -1.608667,-0.762 -1.777999,-0.33867 -1.862666,-0.0847 -1.778,0.16933 -1.778034,0.59266 -1.523964,0.84667 -1.439333,1.18533 -1.185334,1.35467 -1.100701,1.778 -0.761965,1.94733 -0.338702,2.11667 v 2.11666 l 0.338702,2.032 0.761965,1.94734 1.100701,1.86266 1.100667,1.27 1.354666,1.10067 1.524,0.84667 1.608666,0.59266 1.693332,0.33867 h 1.693333 l 1.777965,-0.33867 1.608666,-0.59266 1.524035,-0.84667 1.354631,-1.016 1.100666,-1.35467 0.931368,-1.43933 0.592667,-1.60867 0.380982,-1.778 z"
   inkscape:connector-curvature="0"
   sodipodi:nodetypes="cccccccccccccccccccccccccccccccccccccc"
   inkscape:label="#engrave_1542" /><path
   id="warding_1542"
   style="fill:#0000ff;stroke:#000000;stroke-width:0.0881944;stroke-linecap:round;stroke-linejoin:round;stroke-miterlimit:10;stroke-dasharray:none;stroke-opacity:1"
   d="m 130.53079,62.949037 v -0.67733 l 0.1693,-0.508 0.3387,-0.67734 h 1.60867 v 0.67734 l -0.254,0.67733 v 0.42333 l 0.1693,0.42334 0.25399,0.42333 0.16937,0.508 v 0.508 l -0.0847,0.33867 -0.254,0.33866 -0.67733,0.59267 -0.0847,0.254 0.0847,0.254 0.16933,0.16933 0.59267,0.16934 0.16933,0.0847 0.0847,0.254 v 0.254 l -0.254,0.254 h -1.86266 l -0.254,-0.33866 v -1.27 l 0.0846,-0.42334 0.254,-0.33866 0.3387,-0.33867 0.16933,-0.33867 -0.0847,-0.33866 -0.59267,-0.67734 z"
   inkscape:connector-curvature="0"
   sodipodi:nodetypes="ccccccccccccccccccccccccccccccccc"
   inkscape:label="#warding_1542" />
<path
   id="warding_1518"
   style="fill:#0000ff;stroke:#000000;stroke-width:0.0881944;stroke-linecap:round;stroke-linejoin:round;stroke-miterlimit:10;stroke-dasharray:none;stroke-opacity:1"
   d="m 64.955182,94.023491 0.169333,-0.16933 0.08467,-0.16934 v -0.254 l -0.169333,-0.33866 -0.169334,-0.16934 -0.08467,-0.254 v -0.33866 l 0.254,-0.254 0.169333,-0.33867 -0.254,-0.33867 -0.423333,-0.254 -0.169334,-0.254 0.08467,-0.254 0.677333,-0.762 v -0.254 l -0.08467,-0.16933 -0.508,-0.59267 v -1.35466 h -1.693334 v 0.93133 l 0.338667,0.762 0.08467,0.508 -0.169334,0.508 -0.169333,0.16933 -0.08467,0.254 0.08467,0.254 1.016,1.43934 v 0.33866 l -0.08467,0.16934 -0.169333,0.16933 -0.592667,0.0847 -0.169333,0.16933 -0.08467,0.254 v 0.254 l 0.254,0.254 z"
   inkscape:connector-curvature="0"
   sodipodi:nodetypes="ccccccccccccccccccccccccccccccccccccc"
   inkscape:label="#warding_1518" /><path
   id="engrave_1518"
   style="opacity:0.534;fill:#00ff00;stroke:#000000;stroke-width:0.0881944;stroke-linecap:round;stroke-linejoin:round;stroke-miterlimit:10;stroke-dasharray:none;stroke-opacity:1"
   d="m 26.982338,82.254821 -0.169333,-0.93134 -0.423334,-0.84666 -0.677332,-0.762 -0.846667,-0.42334 -1.015999,-0.0847 H 6.5776784 l -1.016,0.0847 -0.846667,0.42334 -0.677333,0.762 -0.423333,0.84666 -0.169333,0.93134 v 15.40932 l 0.169333,0.93134 0.423333,0.84666 0.677333,0.677339 0.846667,0.42333 1.016,0.16933 H 23.849673 l 1.015999,-0.16933 0.846667,-0.42333 0.677332,-0.677339 0.423334,-0.84666 0.169333,-0.93134 v -6.64633 z"
   inkscape:connector-curvature="0"
   sodipodi:nodetypes="cccccccccccccccccccccccccc"
   inkscape:label="#engrave_1518" />
<path
   id="warding_1543"
   style="fill:#0000ff;stroke:#000000;stroke-width:0.0881944;stroke-linecap:round;stroke-linejoin:round;stroke-miterlimit:10;stroke-dasharray:none;stroke-opacity:1"
   d="m 65.211729,64.011739 -0.169334,-0.33863 v -0.3387 l 0.254,-0.4233 0.254,-0.16937 0.169368,-0.33867 -0.08467,-0.33863 -0.169367,-0.254 -0.169334,-0.254 -0.254,-0.42337 0.0847,-0.42333 0.169299,-0.67733 h 1.608667 v 0.16933 l -0.423299,0.76203 v 0.508 l 0.254,0.25397 0.254,0.67733 v 0.67737 l -0.423368,0.59267 -0.08463,0.254 0.08463,0.254 0.592667,0.508 0.169333,0.33866 0.08467,0.4233 v 0.8467 l -0.169299,0.1693 h -1.947368 l -0.254,-0.1693 v -0.254 l 0.0847,-0.254 0.254,-0.16936 0.592667,-0.16934 0.169299,-0.0847 v -0.25397 l -0.08467,-0.16937 z"
   inkscape:connector-curvature="0"
   sodipodi:nodetypes="ccccccccccccccccccccccccccccccccccccc"
   inkscape:label="#warding_1543" /><path
   id="engrave_1543"
   style="opacity:0.498;fill:#00ff00;stroke:#000000;stroke-width:0.0881944;stroke-linecap:round;stroke-linejoin:round;stroke-miterlimit:10;stroke-dasharray:none;stroke-opacity:1"
   d="m 25.538869,71.547099 -0.169298,0.76197 -0.423368,0.67733 -0.592632,0.59267 -0.762035,0.33867 -0.762,0.0847 h -6.603998 l -1.439298,-0.16937 -1.439368,-0.59267 -1.269999,-0.84663 -1.015964,-1.10067 -0.677369,-0.762 -0.7619995,-0.508 -0.8466672,-0.3387 -1.016,-0.1693 -1.354666,-0.0847 -1.27,-0.508 -1.185298,-0.762 -1.015999,-0.93133 -0.762035,-1.18534 -0.423333,-1.35466 -0.169298,-1.3547 0.169298,-1.35464 0.423333,-1.3547 0.762035,-1.1853 1.015999,-0.93136 1.185298,-0.76197 1.27,-0.508 1.354666,-0.16933 1.016,-0.0847 0.8466672,-0.33863 0.7619995,-0.508 0.677369,-0.76204 1.015964,-1.10067 1.269999,-0.84666 1.439368,-0.59263 1.439298,-0.16937 h 6.603998 l 0.762,0.0847 0.762035,0.33871 0.592632,0.59263 0.423368,0.67733 0.169298,0.76204 0.635018,5.92664 0.29635,2.286 -0.127035,0.80435 z"
   inkscape:connector-curvature="0"
   sodipodi:nodetypes="ccccccccccccccccccccccccccccccccccccccccccccccc"
   inkscape:label="#engrave_1543" />
<path
   inkscape:connector-curvature="0"
   style="fill:#ff0000;stroke:#000000;stroke-width:0.0881944;stroke-linecap:round;stroke-linejoin:round;stroke-miterlimit:10;stroke-dasharray:none;stroke-opacity:1"
   d="m 16.989328,26.735382 -1.693436,0.25373 -1.52394,0.59273 -1.354955,0.93173 -1.100707,1.18494 -0.761711,0.84698 -1.0159586,0.50798 -1.100708,0.16898 -1.439188,0.1695 -1.439706,0.50798 -1.26969,0.76222 -1.015959,1.10071 -0.846976,1.26969 -0.50798,1.43971 -0.168982,1.43919 0.168982,1.52393 0.50798,1.43919 0.846976,1.27021 1.015959,1.01596 1.26969,0.84646 1.439706,0.50798 1.439188,0.1695 1.100708,0.1695 1.0159586,0.50798 0.761711,0.76171 1.100707,1.27021 1.354955,0.9312 1.52394,0.592727 1.693436,0.1695 h 6.518982 l 0.931724,-0.0847 0.846461,-0.423227 0.677479,-0.59273 0.507978,-0.76222 0.25373,-0.93121 0.254248,-1.94717 0.338482,-0.67748 0.677479,-0.42323 H 28.7576 l 0.677479,0.42323 0.42323,0.42323 0.507979,0.42323 0.677478,0.0847 0.592728,-0.25373 0.507979,-0.50798 0.1695,-0.67748 v -1.01596 -0.1695 l 0.25373,-0.0847 h 26.868824 l 0.1695,-0.0848 1.015957,-1.10019 0.338482,-0.50798 0.169497,-0.59273 -0.169497,-0.67747 -0.338482,-0.59273 -3.640605,-4.06384 -0.254246,-0.0847 h -22.550742 -0.08475 l -0.338481,0.1695 -0.08475,0.0842 h -1.100709 l -0.25373,-0.0842 v -0.1695 -1.52394 l -0.1695,-0.67748 -0.507979,-0.50798 -0.592728,-0.16949 -0.677478,0.0847 -0.550355,0.38085 -0.380854,0.46612 -0.677479,0.42323 H 27.99589 l -0.677479,-0.42323 -0.338482,-0.76222 -0.254248,-1.94717 -0.25373,-0.84698 -0.507978,-0.76171 -0.677479,-0.67748 -0.846461,-0.33848 -0.931724,-0.1695 z m -8.9746456,8.12819 0.93121,0.0842 0.931209,0.50798 0.6774776,0.67748 0.42323,0.84697 0.169499,0.93121 -0.169499,1.01596 -0.42323,0.84646 -0.6774776,0.67748 -0.931209,0.42323 -0.93121,0.1695 -0.931726,-0.1695 -0.931209,-0.42323 -0.676962,-0.67747 -0.423746,-0.84646 -0.168982,-1.01596 0.168982,-0.93121 0.423746,-0.84698 0.676962,-0.67748 0.931209,-0.50798 z"
   id="outline_1517"
   sodipodi:nodetypes="cccccccccccccccccccccccccccccccccccccccccccccccccccccccccccccccccccccccccccccccccccccccccccccccccccccccc"
   inkscape:label="#outline_1517" /><path
   id="engrave_1517"
   style="opacity:0.543;fill:#00ff00;stroke:#000000;stroke-width:0.0881944;stroke-linecap:round;stroke-linejoin:round;stroke-miterlimit:10;stroke-dasharray:none;stroke-opacity:1"
   d="m 9.4538254,31.561362 0.8467016,-0.33867 0.761964,-0.508 0.677369,-0.67733 1.015998,-1.18533 1.269999,-0.84667 1.439334,-0.59267 1.524,-0.16933 h 6.519296 l 0.762,0.16933 0.762034,0.254 0.592632,0.59267 0.338702,0.59267 0.253999,0.762 1.100666,8.29733 -1.100666,8.29733 -0.253999,0.762 -0.338702,0.67734 -0.592632,0.508 -0.762034,0.33866 -0.762,0.0847 h -6.519296 l -1.524,-0.16933 -1.439334,-0.508 -1.269999,-0.93134 -1.015998,-1.10066 -0.677369,-0.67734 -0.761964,-0.59266 -0.8467016,-0.33867 -1.015964,-0.0847 -1.354702,-0.16933 -1.269965,-0.508 -1.185333,-0.67733 -1.015999,-1.01601 -0.762036,-1.18533 -0.423297,-1.27 -0.169334,-1.43933 0.169334,-1.35467 0.423297,-1.35466 0.762036,-1.10067 1.015999,-1.016 1.185333,-0.762 1.269965,-0.42333 1.354702,-0.16934 z"
   inkscape:connector-curvature="0"
   sodipodi:nodetypes="ccccccccccccccccccccccccccccccccccccccccccccc"
   inkscape:label="#engrave_1517" />
<path
   inkscape:connector-curvature="0"
   style="fill:#ff0000;stroke:#211c1c;stroke-width:0.0881944;stroke-linecap:butt;stroke-linejoin:miter;stroke-miterlimit:4;stroke-dasharray:none;stroke-opacity:1"
   d="m 2.1908181,147.69776 c 0,1.97231 1.60421,3.57291 3.58118,3.57291 H 23.119255 c 1.97679,0 3.58117,-1.6006 3.58117,-3.57291 v -0.65164 c 0,-0.79047 0.64304,-1.43144 1.43506,-1.43144 h 2.55281 c 0.28025,0 0.50798,-0.22719 0.50798,-0.50694 v -1.24954 c 0,-0.13988 0.11354,-0.25322 0.25373,-0.25322 l 24.89047,10e-6 c 0.30869,0 0.55914,-0.24979 0.55914,-0.55759 v -0.55759 c 0,-0.62823 0.49858,-1.14361 1.12758,-1.1653 v -0.001 c 0.36266,-0.0124 0.65061,-0.30903 0.65061,-0.67076 0,-0.16606 -0.0618,-0.32626 -0.1726,-0.44959 l -2.66495,-2.95176 c -0.0483,-0.0532 -0.11618,-0.0832 -0.18811,-0.0832 h -24.20214 c -0.14019,0 -0.25373,-0.11385 -0.25373,-0.25373 v -1.17357 c 0,-0.7276 -0.59169,-1.31723 -1.32085,-1.31723 h -1.73994 c -0.79202,0 -1.43506,-0.64163 -1.43506,-1.43195 v -0.65164 c 0,-1.972 -1.60438,-3.57343 -3.58117,-3.57343 H 5.7719981 c -1.97697,0 -3.58118,1.60143 -3.58118,3.57343 z m 2.40657,-7.65431 c 0,-1.52496 1.24025,-2.76263 2.76831,-2.76263 1.52827,0 2.7688199,1.23767 2.7688199,2.76263 0,1.52481 -1.2405499,2.7621 -2.7688199,2.7621 -1.52806,0 -2.76831,-1.23729 -2.76831,-2.7621 z"
   id="outline_1655"
   inkscape:label="#outline_1655" />
<path
   style="fill:#0000ff;stroke:#211c1c;stroke-width:0.0881944;stroke-linecap:butt;stroke-linejoin:round;stroke-miterlimit:4;stroke-dasharray:none;stroke-opacity:1"
   d="m 62.436512,143.60482 h 1.651 c 0.2099,0 0.381,-0.17036 0.381,-0.38015 v -0.63098 c 0,-0.12436 -0.0759,-0.23615 -0.19156,-0.28233 l 0.001,-0.001 -0.60148,-0.23993 c -0.1711,-0.0681 -0.28258,-0.23307 -0.28258,-0.41634 0,-0.15709 0.0818,-0.30283 0.21696,-0.38397 l -0.001,-0.001 0.56656,-0.34039 c 0.18097,-0.10919 0.2921,-0.30505 0.2921,-0.51622 v -1.43919 l -0.38382,-0.44022 c -0.0607,-0.0689 -0.0938,-0.15776 -0.0938,-0.24942 v -1.16582 h -1.2319 v 0.50711 c 0,0.19707 -0.1143,0.37621 -0.29281,0.45958 l 8e-4,-8e-4 -0.0854,0.04 c -0.1524,0.0709 -0.24941,0.22324 -0.24941,0.39067 v 1.0287 c 0,0.14608 0.0737,0.28197 0.19614,0.36138 l -8e-4,-0.001 0.33585,0.21876 c 0.0868,0.0562 0.13899,0.15212 0.13899,0.25513 0,0.10869 -0.0579,0.20908 -0.1524,0.26339 v 1.4e-4 l -0.33867,0.19328 c -0.1016,0.0584 -0.16404,0.16641 -0.16404,0.28318 0,0.0691 0.0219,0.13628 0.0624,0.19208 l 8e-4,2.7e-4 0.52457,0.72245 c 0.0536,0.0736 0.0826,0.16225 0.0826,0.25323 0,0.17191 -0.10265,0.32745 -0.26035,0.39564 l 10e-4,-2.6e-4 -0.24271,0.1035 c -0.11148,0.048 -0.18379,0.1578 -0.18379,0.27922 v 0.23822 c 0,0.16779 0.13617,0.30403 0.30444,0.30403 z"
   id="warding_1655"
   inkscape:connector-curvature="0"
   sodipodi:nodetypes="cssscccscccsccsccscccsscccscccscccscccsscc"
   inkscape:label="#warding_1655" /><path
   style="opacity:0.42;fill:#00ff00;stroke:#211c1c;stroke-width:0.0881944;stroke-linecap:butt;stroke-linejoin:miter;stroke-miterlimit:4;stroke-dasharray:none;stroke-opacity:1"
   d="m 26.141705,132.99326 v -0.6539 c 0,-1.66465 -1.35411,-3.01583 -3.02239,-3.01583 H 5.7718981 c -1.66829,0 -3.02239,1.35118 -3.02239,3.01583 v 15.3574 c 0,1.66465 1.3541,3.01564 3.02239,3.01564 H 23.119315 c 1.66828,0 3.02239,-1.35099 3.02239,-3.01564 v -0.6513 -5.47513 z"
   id="engrave_1655"
   inkscape:connector-curvature="0"
   sodipodi:nodetypes="cssssssssccc"
   inkscape:label="#engrave_1655" />
<path
   id="outline_1644"
   style="fill:#ff0000;stroke:#231f20;stroke-width:0.176389;stroke-linecap:butt;stroke-linejoin:miter;stroke-miterlimit:10;stroke-dasharray:none;stroke-opacity:1"
   d="m 5.2086033,115.08749 c 0,1.7501 1.42215,3.17052 3.17468,3.17052 1.7521707,0 3.1744707,-1.42042 3.1744707,-3.17052 0,-1.75027 -1.4223,-3.17104 -3.1744707,-3.17104 -1.75253,0 -3.17468,1.42077 -3.17468,3.17104 z m 21.4686277,-7.5408 v 0.83718 c 0,0.83989 0.68266,1.52203 1.52379,1.52203 h 1.92768 c 0.67282,0 1.21889,0.54535 1.21889,1.2175 v 1.26848 c 0,0.13988 0.11387,0.25355 0.25407,0.25355 h 23.7915 c 0.21378,0 0.41769,0.0896 0.56233,0.24736 l -7.9e-4,10e-4 2.41653,2.6379 c 0.32561,0.35553 0.50624,0.81975 0.50624,1.30139 0,0.54431 -0.23001,1.06314 -0.63394,1.42851 l -7.9e-4,-2.6e-4 -0.84314,0.76119 c -0.0462,0.0424 -0.10724,0.0656 -0.17039,0.0656 h -25.62771 c -0.14019,0 -0.25407,0.1137 -0.25407,0.25376 v 1.39505 c 0,0.22409 -0.18189,0.40584 -0.40619,0.40584 h -2.74038 c -0.84112,0 -1.52378,0.68195 -1.52378,1.52202 0,1.94807 -1.55081,3.54313 -3.50055,3.60034 -2.92128,0.0856 -5.84358,0.12831 -8.766062,0.12831 -2.92227,0 -5.8445807,-0.0427 -8.7658607,-0.12831 -1.949605,-0.0572 -3.500595,-1.6523 -3.500595,-3.60037 v -15.11812 c 0,-1.94786 1.55099,-3.54291 3.50058,-3.60013 2.92128,-0.0854 5.8435907,-0.12884 8.7660307,-0.12884 2.922487,0 5.844787,0.0434 8.765887,0.12884 1.94974,0.0572 3.50055,1.65227 3.50055,3.60013 z"
   inkscape:connector-curvature="0"
   inkscape:label="#outline_1644" /><path
   inkscape:connector-curvature="0"
   id="engrave_1644"
   style="opacity:0.453;fill:#00ff00;stroke:#231f20;stroke-width:0.176389;stroke-linecap:butt;stroke-linejoin:miter;stroke-miterlimit:10;stroke-dasharray:none;stroke-opacity:1"
   d="m 26.118611,122.66343 c 0,1.64645 -1.31067,2.99434 -2.95829,3.04274 -2.91574,0.0853 -5.83254,0.12817 -8.749687,0.12799 -2.91695,0 -5.8337507,-0.0426 -8.7494907,-0.12799 -1.64765,-0.0484 -2.95815,-1.39629 -2.95815,-3.04274 v -15.11776 c 0,-1.64641 1.3105,-2.99413 2.95815,-3.04235 h 1.8e-4 c 2.91556,-0.0854 5.8325407,-0.12817 8.7494807,-0.12817 2.916977,0 5.833777,0.0427 8.749517,0.12817 1.64762,0.0482 2.95829,1.39594 2.95829,3.04235 v 8.93115 z"
   inkscape:label="#engrave_1644" /><path
   id="outline_M3"
   style="fill:#ff0000;stroke:#231f20;stroke-width:0.176389;stroke-linecap:butt;stroke-linejoin:miter;stroke-miterlimit:10;stroke-dasharray:none;stroke-opacity:1"
   d="m 146.43698,13.210247 c 0,1.7501 1.42215,3.17052 3.17468,3.17052 1.75217,0 3.17447,-1.42042 3.17447,-3.17052 0,-1.75027 -1.4223,-3.17104 -3.17447,-3.17104 -1.75253,0 -3.17468,1.42077 -3.17468,3.17104 z m 21.46863,-7.5408005 v 0.83718 c 0,0.83989 0.68266,1.52203 1.52379,1.52203 h 1.92768 c 0.67282,0 1.21889,0.4513202 1.21889,1.1234702 v 0.8946603 c 0,0.13988 0.11387,0.25355 0.25407,0.25355 h 23.7915 c 0.21378,0 0.41769,0.0896 0.56233,0.24736 l -7.9e-4,0.001 2.41653,2.6379 c 0.32561,0.35553 0.50624,1.19357 0.50624,1.67521 0,0.54431 -0.19507,1.02845 -0.599,1.39382 l -0.0357,0.0344 -0.84314,0.85522 c -0.0462,0.0424 -0.10724,0.0656 -0.17039,0.0656 h -25.62771 c -0.14019,0 -0.25407,0.1137 -0.25407,0.25376 v 1.39505 c 0,0.22409 -0.18189,0.40584 -0.40619,0.40584 h -2.74038 c -0.84112,0 -1.52378,0.68195 -1.52378,1.52202 0,1.94807 -1.55081,3.54313 -3.50055,3.60034 -2.92128,0.0856 -5.84358,0.12831 -8.76607,0.12831 -2.92227,0 -5.84458,-0.0427 -8.76586,-0.12831 -1.9496,-0.0572 -3.50059,-1.6523 -3.50059,-3.60037 V 5.6693665 c 0,-1.94786 1.55099,-3.54291 3.50058,-3.60013 2.92128,-0.0854 5.84359,-0.12884 8.76603,-0.12884 2.92249,0 5.84479,0.0434 8.76589,0.12884 1.94974,0.0572 3.50055,1.65227 3.50055,3.60013 z"
   inkscape:connector-curvature="0"
   inkscape:label="#outline_M3"
   sodipodi:nodetypes="ssssscssssssscccscccssssssscscsscsccc" /><path
   inkscape:connector-curvature="0"
   id="engrave_M3"
   style="opacity:0.453;fill:#00ff00;stroke:#231f20;stroke-width:0.176389;stroke-linecap:butt;stroke-linejoin:miter;stroke-miterlimit:10;stroke-dasharray:none;stroke-opacity:1"
   d="m 167.34699,20.786187 c 0,1.64645 -1.31067,2.99434 -2.95829,3.04274 -2.91574,0.0853 -5.83254,0.12817 -8.74969,0.12799 -2.91695,0 -5.83375,-0.0426 -8.74949,-0.12799 -1.64765,-0.0484 -2.95815,-1.39629 -2.95815,-3.04274 V 5.6684265 c 0,-1.64641 1.3105,-2.99413 2.95815,-3.04235 h 1.8e-4 c 2.91556,-0.0854 5.83254,-0.12817 8.74948,-0.12817 2.91698,0 5.83378,0.0427 8.74952,0.12817 1.64762,0.0482 2.95829,1.39594 2.95829,3.04235 v 8.9311505 z"
   inkscape:label="#engrave_M3" /><path
   inkscape:connector-curvature="0"
   id="warding_1644"
   style="fill:#0000ff;stroke:#231f20;stroke-width:0.088;stroke-linecap:butt;stroke-linejoin:round;stroke-miterlimit:10;stroke-dasharray:none;stroke-opacity:1"
   d="m 64.599373,116.51227 c -0.11959,0.2026 -0.29174,0.36914 -0.49812,0.482 l 8e-4,1.4e-4 -0.31996,0.17416 c -0.12383,0.0677 -0.20074,0.19742 -0.20074,0.33832 0,0.15847 0.097,0.30074 0.24448,0.35881 l 0.002,-0.001 0.56621,0.222 c 0.16082,0.0634 0.267,0.21897 0.267,0.3919 v 0.7686 c 0,0.1259 -0.1023,0.22825 -0.2286,0.22825 h -1.83374 c -0.12629,0 -0.2286,-0.10235 -0.2286,-0.22825 l 0.002,-0.27905 c 0,-0.18708 0.12065,-0.35278 0.29916,-0.41031 l -0.002,-7.1e-4 0.096,-0.0291 c 0.16228,-0.0525 0.27235,-0.20359 0.27235,-0.37412 0,-0.0853 -0.0275,-0.16831 -0.079,-0.2365 l 2.6e-4,6.6e-4 -0.47625,-0.63218 c -0.0582,-0.0773 -0.09,-0.17155 -0.09,-0.26836 0,-0.16072 0.0864,-0.30903 0.22613,-0.38826 l -2.6e-4,1.7e-4 0.26881,-0.15522 c 0.0864,-0.0491 0.14041,-0.14108 0.14041,-0.24045 0,-0.0933 -0.0473,-0.18017 -0.12524,-0.23135 l 7.9e-4,5.3e-4 -0.33902,-0.22115 c -0.11007,-0.0722 -0.17675,-0.19502 -0.17675,-0.32678 0,-0.15176 0.0882,-0.28991 0.22614,-0.35415 v -0.001 l 0.11641,-0.0541 c 0.0833,-0.0386 0.14712,-0.11025 0.17605,-0.19706 l 0.001,-6.6e-4 c 0.0342,-0.10198 0.0515,-0.20877 0.0515,-0.31626 0,-0.12781 -0.0247,-0.25425 -0.0723,-0.37275 l -0.001,7.1e-4 c -0.0208,-0.052 -0.0557,-0.0972 -0.1009,-0.13127 l -0.001,-0.002 -0.0871,-0.0637 c -0.0953,-0.072 -0.15169,-0.18433 -0.15169,-0.30385 v -0.67735 h 1.51906 v 0.45649 c 0,0.18877 0.10442,0.36209 0.27129,0.45061 l 2.6e-4,-10e-4 0.10866,0.0586 c 0.13652,0.0724 0.22154,0.2136 0.22154,0.36727 0,0.11025 -0.0437,0.21633 -0.12171,0.29418 l 0.002,3.5e-4 -0.5468,0.54966 c -0.0515,0.0513 -0.0804,0.12092 -0.0804,0.19346 0,0.0965 0.0511,0.18585 0.1337,0.23531 l -0.001,6.6e-4 0.36724,0.21773 c 0.15628,0.0933 0.25223,0.26219 0.25223,0.44426 0,0.0923 -0.0243,0.18309 -0.0716,0.26267 l 2.7e-4,8.4e-4 z"
   sodipodi:nodetypes="ccccscccsssscccccscccscccscccscccccscccccsccscccscccscccsccc"
   inkscape:label="#warding_1644" /><path
   inkscape:connector-curvature="0"
   style="fill:#ff0000;stroke:#231f20;stroke-width:0.0881944;stroke-linecap:butt;stroke-linejoin:miter;stroke-miterlimit:10;stroke-dasharray:none;stroke-opacity:1"
   d="m 2.2045492,197.63269 c 0,2.06051 1.63657,3.74723 3.69383,3.80752 2.92005,0.0858 5.8410098,0.12868 8.7622598,0.12868 2.92128,0 5.8422,-0.0429 8.76225,-0.12868 2.05726,-0.0603 3.69383,-1.74701 3.69383,-3.80752 v -0.90175 c 0,-0.77103 0.62512,-1.39681 1.39527,-1.39681 0.40188,0 0.78413,0.17346 1.04903,0.47594 l 10e-4,0.002 0.50642,0.58187 c 0.2244,0.25636 0.54826,0.40359 0.8888,0.40359 0.6525,0 1.18236,-0.53052 1.18236,-1.1839 v -0.65991 c 0,-0.1402 0.11385,-0.25425 0.25373,-0.25425 h 26.97665 c 0.0677,0 0.13272,-0.0269 0.18035,-0.0744 l -0.003,0.001 0.98392,-0.98341 c 0.33831,-0.33863 0.52865,-0.79806 0.52865,-1.27692 0,-0.44616 -0.16509,-0.87666 -0.46354,-1.2082 l -5.3e-4,-0.001 -3.70365,-4.11861 c -0.0476,-0.0538 -0.11649,-0.0842 -0.1881,-0.0842 h -24.31122 c -0.13988,0 -0.25374,-0.11374 -0.25374,-0.25425 v -1.93528 c 0,-0.649 -0.52623,-1.17512 -1.1746,-1.17512 -0.25598,0 -0.50503,0.0832 -0.709,0.23823 h 0.001 l -0.90283,0.68475 c -0.24236,0.18326 -0.53813,0.28318 -0.84233,0.28318 -0.77014,0 -1.39526,-0.62637 -1.39526,-1.39733 v -0.90123 c 0,-2.06016 -1.63657,-3.7474 -3.69383,-3.80804 -2.92005,-0.0854 -5.84098,-0.12816 -8.76226,-0.12816 -2.92124,0 -5.8423798,0.0428 -8.7622498,0.12816 -2.05726,0.0606 -3.69383,1.74788 -3.69383,3.80804 z m 3.27887,-7.59126 c 0,-1.75253 1.42093,-3.17449 3.17138,-3.17449 1.7504498,0 3.1708598,1.42196 3.1708598,3.17449 0,1.75231 -1.42041,3.17448 -3.1708598,3.17448 -1.75045,0 -3.17138,-1.42217 -3.17138,-3.17448 z"
   id="outline_1638"
   inkscape:label="#outline_1638" /><path
   inkscape:connector-curvature="0"
   style="fill:#ff0000;stroke:#231f20;stroke-width:0.0881944;stroke-linecap:butt;stroke-linejoin:miter;stroke-miterlimit:10;stroke-dasharray:none;stroke-opacity:1"
   d="m 2.2071292,172.32818 c 0,2.05419 1.63674,3.73637 3.69435,3.79666 2.9204,0.0854 5.8416898,0.12816 8.7632898,0.12816 2.92163,0 5.84289,-0.0427 8.76329,-0.12816 2.05761,-0.0603 3.69435,-1.74247 3.69435,-3.79666 v -0.89865 c 0,-0.76878 0.62511,-1.39268 1.39526,-1.39268 0.40185,0 0.78461,0.17294 1.04955,0.47438 l 10e-4,0.002 0.50643,0.58033 c 0.22443,0.25545 0.54844,0.40204 0.88883,0.40204 0.65267,0 1.18236,-0.52847 1.18236,-1.17977 v -0.65836 c 0,-0.1397 0.11368,-0.25321 0.25373,-0.25321 h 31.42078 c 0.0674,0 0.13221,-0.0264 0.17983,-0.0739 l -0.002,5.3e-4 0.98392,-0.9803 c 0.33832,-0.33761 0.52865,-0.79583 0.52865,-1.27331 0,-0.44492 -0.1656,-0.87399 -0.46405,-1.20458 l -5.3e-4,-5.3e-4 -3.70365,-4.10672 c -0.048,-0.0534 -0.1163,-0.0837 -0.18862,-0.0837 h -28.7543 c -0.14005,0 -0.25373,-0.1137 -0.25373,-0.25322 v -1.9296 h 5.3e-4 c 0,-0.64696 -0.52627,-1.17202 -1.17461,-1.17202 -0.25615,0 -0.5054,0.0834 -0.70951,0.23771 h 0.001 l -0.90279,0.68265 c -0.24254,0.18327 -0.53864,0.28267 -0.84284,0.28267 -0.77015,0 -1.39527,-0.62425 -1.39527,-1.3932 v -0.89865 c 0,-2.05398 -1.63674,-3.73586 -3.69434,-3.79615 -2.9204,-0.0854 -5.84166,-0.12816 -8.7633,-0.12816 -2.92159,0 -5.8428798,0.0427 -8.7632798,0.12816 -2.05762,0.0603 -3.69435,1.74217 -3.69435,3.79615 z m 3.26853,-7.55251 c 0,-1.74721 1.42076,-3.16518 3.17139,-3.16518 1.7506198,0 3.1718998,1.41797 3.1718998,3.16518 0,1.74699 -1.42128,3.16466 -3.1718998,3.16466 -1.75063,0 -3.17139,-1.41767 -3.17139,-3.16466 z"
   id="outline_a1638"
   inkscape:label="#outline_a1638" />
<path
   style="fill:#0000ff;stroke:#231f20;stroke-width:0.0881944;stroke-linecap:butt;stroke-linejoin:miter;stroke-miterlimit:10;stroke-dasharray:none;stroke-opacity:1"
   d="m 64.674429,191.0015 c -0.11042,-0.0721 -0.17639,-0.19516 -0.17639,-0.3271 0,-0.15211 0.0875,-0.29026 0.22507,-0.3545 v -10e-4 l 0.11924,-0.0543 c 0.0833,-0.0389 0.14675,-0.11024 0.17568,-0.19742 l -0.001,0.002 c 0.0346,-0.10216 0.0519,-0.20912 0.0519,-0.31679 0,-0.12785 -0.0243,-0.25439 -0.0723,-0.37292 l 0.002,-0.002 c -0.0215,-0.0524 -0.0561,-0.0979 -0.1016,-0.13166 l -7.9e-4,0.001 -0.0868,-0.0668 c -0.0956,-0.0717 -0.15134,-0.18468 -0.15134,-0.30392 v -1.97329 h 1.51694 l -0.002,1.75214 c 0,0.18877 0.10407,0.36244 0.27058,0.45063 l 7.9e-4,0.001 0.11113,0.0586 c 0.13617,0.0724 0.22119,0.21361 0.22119,0.36795 0,0.11039 -0.0434,0.21633 -0.12136,0.29439 l -7.9e-4,3.5e-4 -0.54645,0.54793 c -0.0508,0.0513 -0.0797,0.12108 -0.0797,0.19361 0,0.0966 0.0508,0.18605 0.13335,0.23544 l 7.9e-4,7.2e-4 0.36653,0.22062 c 0.15664,0.0936 0.25224,0.26254 0.25224,0.44478 0,0.0925 -0.024,0.18345 -0.0716,0.26307 l 7.9e-4,0.001 c -0.11923,0.20279 -0.29138,0.36951 -0.49741,0.48254 l 8e-4,1.4e-4 -0.31962,0.17173 c -0.12347,0.0677 -0.20073,0.19763 -0.20073,0.3387 0,0.15865 0.0974,0.30106 0.24483,0.35927 l -0.001,-0.001 0.5655,0.22497 c 0.16052,0.0634 0.2667,0.21893 0.2667,0.39218 h 0.003 v 0.76708 c 0,0.12608 -0.10265,0.22842 -0.22895,0.22842 h -1.83127 c -0.12594,0 -0.22789,-0.10234 -0.22789,-0.22842 v -0.27696 c 0,-0.18729 0.1203,-0.35314 0.2981,-0.41071 l 7.9e-4,-7.1e-4 0.096,-0.0319 c 0.16192,-0.0525 0.27199,-0.2038 0.27199,-0.37447 0,-0.0855 -0.0275,-0.16845 -0.079,-0.23672 l 7.9e-4,7.2e-4 -0.47907,-0.63288 c -0.0579,-0.0774 -0.0896,-0.17177 -0.0896,-0.26875 0,-0.1609 0.0861,-0.30935 0.22613,-0.38876 l 0.003,1.4e-4 0.26776,-0.15279 c 0.0871,-0.0493 0.14005,-0.14125 0.14005,-0.24081 0,-0.0933 -0.0469,-0.18033 -0.12488,-0.23145 l -0.002,-0.002 -0.33831,-0.22137 z"
   id="warding_1638"
   inkscape:connector-curvature="0"
   sodipodi:nodetypes="cscccccscccccsccccccscccscccscccccscccccssssscccscccscccscccc"
   inkscape:label="#warding_1638" /><path
   style="opacity:0.48;fill:#00ff00;stroke:#231f20;stroke-width:0.0881944;stroke-linecap:butt;stroke-linejoin:miter;stroke-miterlimit:10;stroke-dasharray:none;stroke-opacity:1"
   d="m 26.558279,182.49762 c 0,-1.75835 -1.39647,-3.19772 -3.15193,-3.24937 -2.91454,-0.0855 -5.83029,-0.1289 -8.74606,-0.1289 -2.91575,0 -5.8313098,0.0434 -8.7458898,0.1289 -1.75564,0.0516 -3.15211,1.49102 -3.15211,3.24937 v 15.13624 c 0,1.75821 1.39647,3.19772 3.15211,3.24923 2.91458,0.0856 5.8301398,0.12851 8.7458898,0.12851 2.91577,0 5.83152,-0.0429 8.74592,-0.12851 h 1.4e-4 c 1.75546,-0.0515 3.15193,-1.49102 3.15193,-3.24923 v -5.54799 z"
   id="engrave_1638"
   inkscape:connector-curvature="0"
   sodipodi:nodetypes="scscsscsccscs"
   inkscape:label="#engrave_1638" />
<path
   style="opacity:0.48;fill:#00ff00;stroke:#231f20;stroke-width:0.0881944;stroke-linecap:butt;stroke-linejoin:miter;stroke-miterlimit:10;stroke-dasharray:none;stroke-opacity:1"
   d="m 26.564379,157.23898 c 0,-1.75284 -1.39665,-3.18805 -3.15246,-3.23941 -2.91486,-0.0854 -5.83099,-0.12817 -8.74726,-0.12817 -2.9161,0 -5.8320098,0.0427 -8.7469098,0.12817 -1.75581,0.0514 -3.15246,1.48657 -3.15246,3.23941 v 15.09057 c 0,1.75288 1.39665,3.18808 3.15246,3.23941 2.9149,0.0854 5.8308098,0.12799 8.7470898,0.12799 2.91609,0 5.83222,-0.0426 8.74708,-0.12799 1.75581,-0.0513 3.15246,-1.48653 3.15246,-3.23941 v -5.53121 z"
   id="engrave_a1638"
   inkscape:connector-curvature="0"
   sodipodi:nodetypes="scscsscscscs"
   inkscape:label="#engrave_a1638" /><path
   style="fill:#0000ff;fill-opacity:1;stroke:#000000;stroke-width:0.0494412;stroke-linecap:round;stroke-linejoin:round;stroke-dasharray:none;stroke-opacity:1"
   d="m 201.21239,17.144917 c 0.0495,0.0497 0.159,0.0821 0.159,0.0821 l 1.95544,-0.002 c 0,0 0.0898,-0.0435 0.13472,-0.0886 0.0495,-0.0498 0.0558,-0.15518 0.0558,-0.15518 v -1.85414 c 0,0 -0.005,-0.1256 -0.0241,-0.18678 -0.0196,-0.0619 -0.0504,-0.0984 -0.0993,-0.13499 -0.0463,-0.0347 -0.15659,-0.0616 -0.15659,-0.0616 l -0.69812,-0.13458 c 0,0 -0.19152,-0.0387 -0.25554,-0.0947 -0.0574,-0.0502 -0.0786,-0.13846 -0.0852,-0.21587 -0.007,-0.0805 0.0143,-0.16459 0.049,-0.23695 0.0353,-0.0736 0.15568,-0.21626 0.15568,-0.21626 l 0.92191,-1.07734 c 0,0 0.10804,-0.13411 0.14126,-0.22582 0.0405,-0.11157 0.0462,-0.35425 0.0462,-0.35425 l 0.006,-1.23371 -0.30265,-0.28664 v -0.37805 h -1.26619 v 1.09241 0.18711 c 0,0.0678 0.0643,0.1095 0.14733,0.18908 0.11314,0.10851 0.26091,0.26175 0.32735,0.38005 0.0435,0.0775 0.0786,0.16788 0.0745,0.25731 -0.004,0.0796 -0.0332,0.16451 -0.0872,0.22144 -0.22236,0.23454 -0.87572,0.2784 -0.87572,0.2784 0,0 -0.23806,0.0252 -0.3001,0.1086 -0.061,0.082 -0.0776,0.2682 -0.0776,0.2682 v 1.67006 c 0,0 -0.0116,0.14838 0.0242,0.2166 0.0261,0.0496 0.1133,0.10876 0.1133,0.10876 l 0.72665,0.48954 c 0,0 0.1246,0.087 0.16055,0.15731 0.0337,0.0658 0.0458,0.14012 0.0432,0.21496 -0.003,0.0697 -0.006,0.1531 -0.056,0.21423 -0.064,0.0774 -0.25511,0.10352 -0.25511,0.10352 l -0.57233,0.0759 c 0,0 -0.10372,0.005 -0.14394,0.052 -0.0343,0.0402 -0.0373,0.13249 -0.0373,0.13249 l -1.6e-4,0.29653 c 0,0 0.006,0.0957 0.0511,0.14061 z"
   id="warding_M3"
   sodipodi:nodetypes="cccsccssccsssccsccccccssssscsccsccsssccsccsc"
   inkscape:connector-curvature="0"
   inkscape:label="#warding_M3" /><text
   id="text7554"
   style="font-variant:normal;font-weight:bold;font-size:4.23333px;font-family:Helvetica;-inkscape-font-specification:Helvetica-Bold;writing-mode:lr-tb;fill:#231f20;fill-opacity:1;fill-rule:nonzero;stroke:none;stroke-width:0.352778"
   x="-18.644505"
   y="139.95586"
   transform="rotate(-90)"
   inkscape:label="A1515"><tspan
     id="tspan7552"
     sodipodi:role="line"
     y="139.95586"
     x="-18.644505 -15.776593 -13.613351 -11.446397 -9.2813005"
     style="stroke-width:0.352778">A1515</tspan></text><text
   id="text7564"
   style="font-variant:normal;font-weight:bold;font-size:4.23333px;font-family:Helvetica;-inkscape-font-specification:Helvetica-Bold;writing-mode:lr-tb;fill:#231f20;fill-opacity:1;fill-rule:nonzero;stroke:none;stroke-width:0.352778"
   x="-43.181881"
   y="140.47224"
   transform="rotate(-90)"
   inkscape:label="1515"><tspan
     id="tspan7562"
     sodipodi:role="line"
     y="140.47224"
     x="-43.181881 -41.018658 -38.855419 -36.686604"
     style="stroke-width:0.352778">1515</tspan></text><text
   y="72.168762"
   x="-18.638243"
   id="text7544-3"
   style="font-variant:normal;font-weight:bold;font-size:4.23333px;font-family:Helvetica;-inkscape-font-specification:Helvetica-Bold;writing-mode:lr-tb;fill:#231f20;fill-opacity:1;fill-rule:nonzero;stroke:none;stroke-width:0.352778"
   transform="rotate(-90)"
   inkscape:label="A1517"><tspan
     style="stroke-width:0.352778"
     id="tspan7542-6"
     sodipodi:role="line"
     y="72.168762"
     x="-18.638243 -15.772261 -13.605207 -11.441996 -9.2749424">A1517</tspan></text><text
   y="141.25157"
   x="-68.643448"
   id="text7600-7"
   style="font-variant:normal;font-weight:bold;font-size:4.23333px;font-family:Helvetica;-inkscape-font-specification:Helvetica-Bold;writing-mode:lr-tb;fill:#231f20;fill-opacity:1;fill-rule:nonzero;stroke:none;stroke-width:0.352778"
   transform="rotate(-90)"
   inkscape:label="1542"><tspan
     style="stroke-width:0.352778"
     id="tspan7598-5"
     sodipodi:role="line"
     y="141.25157"
     x="-68.643448 -66.480209 -64.316971 -62.153763">1542</tspan></text><text
   y="71.914642"
   x="-95.329117"
   id="text7608-3"
   style="font-variant:normal;font-weight:bold;font-size:4.23333px;font-family:Helvetica;-inkscape-font-specification:Helvetica-Bold;writing-mode:lr-tb;fill:#231f20;fill-opacity:1;fill-rule:nonzero;stroke:none;stroke-width:0.352778"
   transform="rotate(-90)"
   inkscape:label="1518"><tspan
     style="stroke-width:0.352778"
     id="tspan7606-5"
     sodipodi:role="line"
     y="71.914642"
     x="-95.329117 -93.165924 -90.998871 -88.835648">1518</tspan></text><text
   y="73.204498"
   x="-68.65403"
   id="text9432-9"
   style="font-variant:normal;font-weight:bold;font-size:4.23333px;font-family:Helvetica;-inkscape-font-specification:Helvetica-Bold;writing-mode:lr-tb;fill:#231f20;fill-opacity:1;fill-rule:nonzero;stroke:none;stroke-width:0.352778"
   transform="rotate(-90)"
   inkscape:label="1543"><tspan
     style="stroke-width:0.352778"
     id="tspan9430-1"
     sodipodi:role="line"
     y="73.204498"
     x="-68.65403 -66.490791 -64.327583 -62.158764">1543</tspan></text><text
   y="72.270447"
   x="-45.573036"
   id="text7544-3-3"
   style="font-variant:normal;font-weight:bold;font-size:4.23333px;font-family:Helvetica;-inkscape-font-specification:Helvetica-Bold;writing-mode:lr-tb;fill:#231f20;fill-opacity:1;fill-rule:nonzero;stroke:none;stroke-width:0.352778"
   transform="rotate(-90)"
   inkscape:label="1517"><tspan
     style="stroke-width:0.352778"
     id="tspan7542-6-6"
     sodipodi:role="line"
     x="-42.707054 -40.540009 -38.376793 -36.209747">1517</tspan></text><text
   y="208.24152"
   x="-17.052828"
   id="text9248-3"
   style="font-variant:normal;font-weight:bold;font-size:4.23333px;font-family:Helvetica;-inkscape-font-specification:Helvetica-Bold;writing-mode:lr-tb;fill:#231f20;fill-opacity:1;fill-rule:nonzero;stroke:none;stroke-width:0.352778"
   transform="rotate(-90)"
   inkscape:label="M3"><tspan
     style="stroke-width:0.352778"
     id="tspan9246-6"
     sodipodi:role="line"
     y="208.24152"
     x="-17.052828">M3</tspan></text><text
   y="71.640732"
   x="-144.4151"
   id="text9248"
   style="font-variant:normal;font-weight:bold;font-size:4.23333px;font-family:Helvetica;-inkscape-font-specification:Helvetica-Bold;writing-mode:lr-tb;fill:#231f20;fill-opacity:1;fill-rule:nonzero;stroke:none;stroke-width:0.352778"
   transform="rotate(-90)"
   inkscape:label="1655"><tspan
     style="stroke-width:0.352778"
     id="tspan9246"
     sodipodi:role="line"
     y="71.640732"
     x="-144.4151 -142.25003 -140.08679 -137.91983">1655</tspan></text><text
   y="72.028931"
   x="-120.33826"
   id="text9256"
   style="font-variant:normal;font-weight:bold;font-size:4.23333px;font-family:Helvetica;-inkscape-font-specification:Helvetica-Bold;writing-mode:lr-tb;fill:#231f20;fill-opacity:1;fill-rule:nonzero;stroke:none;stroke-width:0.352778"
   transform="rotate(-90)"
   inkscape:label="1644"><tspan
     style="stroke-width:0.352778"
     id="tspan9254"
     sodipodi:role="line"
     y="72.028931"
     x="-120.33826 -118.17505 -116.01181 -113.84299">1644</tspan></text><text
   id="text32047"
   style="font-variant:normal;font-weight:bold;font-size:4.23333px;font-family:Helvetica;-inkscape-font-specification:Helvetica-Bold;writing-mode:lr-tb;fill:#231f20;fill-opacity:1;fill-rule:nonzero;stroke:none;stroke-width:0.352778"
   x="-171.56129"
   y="71.9534"
   transform="rotate(-90)"
   inkscape:label="A1638"><tspan
     id="tspan32045"
     sodipodi:role="line"
     y="71.9534"
     x="-171.56129 -168.69533 -166.52831 -164.36507 -162.1981"
     style="stroke-width:0.352778">A1638</tspan></text><text
   y="73.951408"
   x="-195.10127"
   id="text33879"
   style="font-variant:normal;font-weight:bold;font-size:4.23333px;font-family:Helvetica;-inkscape-font-specification:Helvetica-Bold;writing-mode:lr-tb;fill:#231f20;fill-opacity:1;fill-rule:nonzero;stroke:none;stroke-width:0.352778"
   transform="rotate(-90)"
   inkscape:label="1638"><tspan
     style="stroke-width:0.352778"
     id="tspan33877"
     sodipodi:role="line"
     y="73.951408"
     x="-195.10127 -192.93617 -190.77293 -188.60597">1638</tspan></text></g></svg>
