<?xml version="1.0" encoding="UTF-8" standalone="no"?>
<!-- Created with Inkscape (http://www.inkscape.org/) -->

<svg
   xmlns:dc="http://purl.org/dc/elements/1.1/"
   xmlns:cc="http://creativecommons.org/ns#"
   xmlns:rdf="http://www.w3.org/1999/02/22-rdf-syntax-ns#"
   xmlns:svg="http://www.w3.org/2000/svg"
   xmlns="http://www.w3.org/2000/svg"
   xmlns:xlink="http://www.w3.org/1999/xlink"
   xmlns:sodipodi="http://sodipodi.sourceforge.net/DTD/sodipodi-0.dtd"
   xmlns:inkscape="http://www.inkscape.org/namespaces/inkscape"
   width="210mm"
   height="297mm"
   viewBox="0 0 210 297"
   version="1.1"
   id="svg14868"
   inkscape:version="0.92.1 r"
   sodipodi:docname="medeco.svg">
  <defs
     id="defs14862">
    <clipPath
       clip-path="url(#clipPathH)"
       id="clipPathJ"
       clipPathUnits="userSpaceOnUse">
      <use
         height="100%"
         width="100%"
         y="0"
         x="0"
         xlink:href="#path11026"
         id="use6" />
    </clipPath>
  </defs>
  <sodipodi:namedview
     id="base"
     pagecolor="#ffffff"
     bordercolor="#666666"
     borderopacity="1.0"
     inkscape:pageopacity="0.0"
     inkscape:pageshadow="2"
     inkscape:zoom="1.4142136"
     inkscape:cx="226.13746"
     inkscape:cy="558.8381"
     inkscape:document-units="mm"
     inkscape:current-layer="layer1"
     showgrid="false"
     inkscape:window-width="3200"
     inkscape:window-height="1767"
     inkscape:window-x="0"
     inkscape:window-y="33"
     inkscape:window-maximized="0" />
  <metadata
     id="metadata14865">
    <rdf:RDF>
      <cc:Work
         rdf:about="">
        <dc:format>image/svg+xml</dc:format>
        <dc:type
           rdf:resource="http://purl.org/dc/dcmitype/StillImage" />
        <dc:title />
      </cc:Work>
    </rdf:RDF>
  </metadata>
  <g
     inkscape:label="Layer 1"
     inkscape:groupmode="layer"
     id="layer1">
    <path
       inkscape:connector-curvature="0"
       style="fill:#ff0000;stroke:#000000;stroke-width:0.08819442;stroke-linecap:round;stroke-linejoin:round;stroke-miterlimit:10;stroke-dasharray:none;stroke-opacity:1"
       d="m 39.56457,195.89957 -1.608688,0.1695 -1.523937,0.59272 -1.354956,0.93121 -1.100708,1.27021 -0.761711,0.76171 -1.015958,0.50798 -1.100708,0.1695 -1.439189,0.25373 -1.439705,0.42375 -1.269691,0.84646 -1.015958,1.01596 -0.846977,1.35443 -0.507979,1.35496 -0.168982,1.52394 0.168982,1.52394 0.507979,1.35495 0.846977,1.26969 1.015958,1.10071 1.269691,0.84698 1.439705,0.42323 1.439189,0.16898 1.100708,0.25425 1.015958,0.50798 0.761711,0.76171 1.100708,1.2702 1.354956,0.93121 1.523937,0.59273 1.608688,0.1695 h 6.603732 l 0.931725,-0.1695 0.84646,-0.33848 0.677477,-0.67748 0.507981,-0.76171 0.25373,-0.93172 0.254249,-2.28565 0.25373,-0.67748 0.677479,-0.42323 0.762227,-0.0847 0.67696,0.42323 0.507981,0.50798 0.592728,0.339 0.677479,0.0842 0.592727,-0.25373 0.42323,-0.50798 0.169498,-0.67748 v -0.93121 -0.42323 -0.1695 l 0.253733,-0.0847 h 25.738997 l 0.168981,-0.0848 0.1695,-0.0847 0.762228,-0.93121 0.338479,-0.59273 0.1695,-0.59273 -0.1695,-0.59221 -0.338479,-0.50798 -2.455664,-2.8789 -0.253733,-0.0847 H 55.227696 54.973963 v -0.25373 -0.25425 -1.01595 l -0.169498,-0.67748 -0.42323,-0.50798 -0.592727,-0.25373 -0.677479,0.0847 -0.592728,0.33848 -0.507981,0.50798 -0.67696,0.42323 -0.762227,-0.0847 -0.677479,-0.42323 -0.25373,-0.67748 -0.254249,-2.28565 -0.25373,-0.93173 -0.507981,-0.76171 -0.677477,-0.67747 -0.84646,-0.33848 -0.931725,-0.1695 z m -8.889896,7.95868 1.015958,0.1695 0.84646,0.50798 0.677478,0.67748 0.507979,0.84646 0.169499,1.01596 -0.169499,1.01596 -0.507979,0.84698 -0.677478,0.67696 -0.84646,0.50797 -1.015958,0.0848 -1.015959,-0.0848 -0.846977,-0.50797 -0.676961,-0.67696 -0.508496,-0.84698 -0.08423,-1.01596 0.08423,-1.01596 0.508496,-0.84646 0.676961,-0.67748 0.846977,-0.50798 z"
       id="outline_1543"
       inkscape:label="#path9162" />
    <path
       inkscape:connector-curvature="0"
       style="fill:#ff0000;stroke:#000000;stroke-width:0.08819442;stroke-linecap:round;stroke-linejoin:round;stroke-miterlimit:10;stroke-dasharray:none;stroke-opacity:1"
       d="m 38.170856,166.51893 -1.862934,0.25373 -1.778186,0.59273 -1.608688,0.93121 -1.523938,1.18546 -1.184941,1.35444 -1.015958,1.69343 -0.762228,1.77819 -0.423229,1.86242 -0.169499,1.86294 0.169499,1.94716 0.423229,1.86294 0.762228,1.77767 1.015958,1.60868 1.184941,1.35496 1.439706,1.18494 1.523938,0.93173 1.777669,0.59272 1.778185,0.33849 h 1.862936 l 1.777669,-0.33849 1.693436,-0.67747 1.608688,-0.84698 1.439188,-1.18494 1.185457,-1.35496 0.931209,-1.60868 0.338998,-0.50798 0.592211,-0.33848 0.592731,-0.0848 h 0.592727 l 0.1695,0.0848 0.08475,0.16949 v 0.67697 l 0.08475,0.339 0.42323,0.16898 h 1.777669 l 0.338998,-0.16898 0.168981,-0.339 v -1.22732 -0.29662 l 0.254249,-0.0848 h 25.5695 0.168981 l 0.931725,-0.93121 0.338481,-0.59273 0.169498,-0.67696 -0.08475,-0.59273 -0.338997,-0.59273 -2.708878,-2.96364 -0.169498,-0.0842 H 54.511461 l -0.169501,-0.0848 -0.08475,-0.1695 v -0.25425 -0.76171 l -0.25373,-0.76223 -0.59273,-0.50798 -0.762228,-0.0847 -0.677476,0.339 -0.507982,0.42323 -0.507979,0.33848 -0.676959,0.0848 -0.677479,-0.0848 -0.592727,-0.42323 -0.338482,-0.59273 -0.846976,-1.60868 -1.184942,-1.52394 -1.354955,-1.26969 -1.608688,-1.01596 -1.777669,-0.67748 -1.862935,-0.42323 z m -4.318082,8.38192 1.015959,0.16898 0.84646,0.42375 0.762227,0.67696 0.423229,0.93172 0.169499,0.93122 -0.169499,1.01595 -0.423229,0.84646 -0.762227,0.76223 -0.84646,0.42323 -1.015959,0.1695 -0.931726,-0.1695 -0.931209,-0.42323 -0.676961,-0.76223 -0.423747,-0.84646 -0.168982,-1.01595 0.168982,-0.93122 0.423747,-0.93172 0.676961,-0.67696 0.931209,-0.42375 z"
       id="outline_1542"
       inkscape:label="#path8846" />
    <path
       inkscape:connector-curvature="0"
       style="fill:#ff0000;stroke:#000000;stroke-width:0.08819442;stroke-linecap:round;stroke-linejoin:round;stroke-miterlimit:10;stroke-dasharray:none;stroke-opacity:1"
       d="m 31.275154,139.98153 -1.185458,0.1695 -0.931209,0.50798 -0.84646,0.76171 -0.507979,1.01596 -0.169499,1.10071 v 15.40939 l 0.169499,1.10071 0.507979,1.01596 0.84646,0.76223 0.931209,0.50798 1.185458,0.16898 h 17.271813 l 1.185458,-0.16898 0.931209,-0.50798 0.846975,-0.76223 0.507979,-1.01596 0.1695,-1.10071 v -0.16949 l 0.168982,-0.67697 0.507978,-0.50798 0.677479,-0.16949 h 2.455148 l 0.338998,-0.1695 0.168981,-0.42323 v -0.84646 -0.42323 l 0.08475,-0.1695 0.169497,-0.0847 h 25.738482 l 0.254248,-0.0847 0.931209,-1.01596 0.338482,-0.59273 0.08475,-0.59273 -0.08475,-0.59272 -0.338482,-0.59222 -2.455148,-2.87889 -0.254246,-0.0847 H 57.521612 l -0.168982,-0.0847 -0.08475,-0.16898 v -0.1695 -0.84646 l -0.1695,-0.76223 -0.507979,-0.50798 -0.67696,-0.1695 h -2.370916 l -0.677479,-0.16898 -0.507978,-0.50798 -0.168982,-0.67747 v -1.27021 l -0.1695,-1.10071 -0.507979,-1.01596 -0.846975,-0.76171 -0.931209,-0.50798 -1.185458,-0.1695 z m 1.523938,8.46667 0.931209,0.1695 0.762228,0.33848 0.592728,0.67748 0.42323,0.76171 0.08475,0.84697 -0.08475,0.84646 -0.42323,0.76223 -0.592728,0.59273 -0.762228,0.42323 -0.931209,0.0847 -0.84646,-0.0847 -0.762228,-0.42323 -0.592728,-0.59273 -0.42323,-0.76223 -0.08475,-0.84646 0.08475,-0.84697 0.42323,-0.76171 0.592728,-0.67748 0.762228,-0.33848 z"
       id="outline_1518"
       inkscape:label="#path7486" />
    <path
       style="fill:#ff0000;stroke:#000000;stroke-width:0.08819442;stroke-linecap:round;stroke-linejoin:round;stroke-miterlimit:10;stroke-dasharray:none;stroke-opacity:1"
       d="m 40.420332,86.278347 -1.693437,0.25373 -1.523939,0.592731 -1.354954,0.931725 -1.100709,1.184941 -0.76171,0.846977 -1.015959,0.507978 -1.100708,0.168982 -1.439189,0.1695 -1.439705,0.507979 -1.26969,0.762227 -1.015959,1.100709 -0.846977,1.269688 -0.507979,1.439706 -0.168982,1.439188 0.168982,1.523939 0.507979,1.439193 0.846977,1.2702 1.015959,1.01596 1.26969,0.84646 1.439705,0.50798 1.439189,0.1695 1.100708,0.1695 1.015959,0.50798 0.76171,0.76171 1.100709,1.27021 1.354954,0.9312 1.523939,0.59273 1.693437,0.1695 h 6.518982 l 0.931725,-0.0847 0.84646,-0.42323 0.677479,-0.59273 0.507979,-0.76223 0.25373,-0.9312 0.254249,-1.94717 0.338481,-0.67748 0.677478,-0.42323 h 0.761709 l 0.677479,0.42323 0.42323,0.42323 0.507979,0.42323 0.677479,0.0847 0.592727,-0.25373 0.507979,-0.50798 0.1695,-0.67748 v -1.01596 -0.1695 l 0.25373,-0.0847 h 31.242021 l 0.1695,-0.0847 1.015958,-1.10019 0.338482,-0.507975 0.169497,-0.59273 -0.169497,-0.677476 -0.338482,-0.592731 -3.640606,-4.063833 -0.254246,-0.08475 h -26.923939 -0.08475 l -0.338481,0.169498 -0.08475,0.08423 h -1.100709 l -0.25373,-0.08423 v -0.169497 -1.523939 l -0.1695,-0.677479 -0.507979,-0.507978 -0.592727,-0.169498 -0.677479,0.08475 -0.550355,0.380854 -0.380854,0.466122 -0.677479,0.42323 h -0.761708 l -0.677478,-0.42323 -0.338481,-0.762227 -0.254249,-1.947167 -0.25373,-0.846979 -0.507979,-0.761709 -0.677479,-0.677479 -0.84646,-0.338481 -0.931725,-0.169498 z m -8.974646,8.128186 0.931209,0.08423 0.93121,0.507979 0.677478,0.677479 0.42323,0.846976 0.169499,0.931209 -0.169499,1.015961 -0.42323,0.84646 -0.677478,0.677476 -0.93121,0.423227 -0.931209,0.1695 -0.931726,-0.1695 -0.931209,-0.423227 -0.676962,-0.677476 -0.423746,-0.84646 -0.168982,-1.015961 0.168982,-0.931209 0.423746,-0.846976 0.676962,-0.677479 0.931209,-0.507979 z"
       id="outline_a1517"
       inkscape:connector-curvature="0"
       inkscape:label="#path7932" />
    <path
       inkscape:connector-curvature="0"
       style="fill:#ff0000;stroke:#000000;stroke-width:0.08819442;stroke-linecap:butt;stroke-linejoin:miter;stroke-miterlimit:10;stroke-dasharray:none;stroke-opacity:1"
       d="m 29.29782,41.134466 c 0,6.176147 4.829302,11.27506 10.997778,11.61221 4.067473,-0.222321 7.722205,-2.55543 9.635071,-6.151046 0.29986,-0.563597 0.886032,-0.915866 1.526005,-0.895035 l 1.187005,0.02066 -0.0026,1.663983 c -0.0024,0.250772 0.225226,0.478345 0.507978,0.507978 h 1.778186 c 0.277971,-0.02963 0.505547,-0.257206 0.507981,-0.507978 l 0.0021,-1.663505 31.411518,-0.0011 1.413352,-1.449567 c 0.273542,-0.306565 0.442349,-0.709819 0.442349,-1.130681 0,-0.39437 -0.148461,-0.774531 -0.373621,-1.062469 L 84.478418,38.016679 H 55.437825 l -0.0026,-1.446339 c -0.0024,-0.777595 -0.628332,-1.403017 -1.3994,-1.403017 -0.339124,0 -0.666583,0.123399 -0.902787,0.37052 l -0.759689,0.670761 c -0.29905,0.218316 -0.662564,0.355534 -1.038696,0.355534 -0.576084,0 -1.104497,-0.319842 -1.372009,-0.829924 -1.902952,-3.628564 -5.57517,-5.988399 -9.66711,-6.212025 -6.168458,0.337116 -10.997777,5.436029 -10.997777,11.612213 z m 2.630848,-0.02739 c 0,-1.892194 1.536078,-3.428214 3.428731,-3.428214 1.892687,0 3.42873,1.53602 3.42873,3.428214 0,1.892194 -1.536043,3.427698 -3.42873,3.427698 -1.892653,0 -3.428731,-1.535504 -3.428731,-3.427698 z"
       id="outline_a1515"
       sodipodi:nodetypes="ccccccccccccsccccsccsccccsssss"
       inkscape:label="#path7030" />
    <path
       inkscape:connector-curvature="0"
       style="fill:#ff0000;stroke:#000000;stroke-width:0.08819442;stroke-linecap:round;stroke-linejoin:round;stroke-miterlimit:10;stroke-dasharray:none;stroke-opacity:1"
       d="m 29.862644,68.163308 0.33848,2.031915 0.762228,1.94717 1.015958,1.778185 1.354957,1.608688 1.60817,1.270206 1.862935,1.01596 1.947168,0.592728 2.031917,0.338481 1.947686,-0.254248 1.947166,-0.676961 1.778188,-0.846978 1.523937,-1.269688 1.354439,-1.439707 1.100709,-1.69292 0.338997,-0.423746 0.592211,-0.338482 0.592727,-0.169497 h 1.185458 v 1.693436 l 0.1695,0.338998 0.338479,0.168981 h 1.778188 l 0.338479,-0.168981 0.1695,-0.338998 v -1.693111 h 27.262418 l 1.100709,-1.100973 0.338997,-0.507979 0.08423,-0.67696 -0.08423,-0.59273 -0.338997,-0.592728 -3.810104,-4.23363 -24.553023,6.1e-5 v -1.354722 l -0.254249,-0.761709 -0.592728,-0.507981 -0.761711,-0.169498 -0.677479,0.338998 -0.761709,0.67696 -0.507979,0.338997 -0.59273,0.08423 -0.507979,-0.08423 -0.507978,-0.338997 -0.338997,-0.42323 -1.015961,-1.693437 -1.354439,-1.439188 -1.608685,-1.270206 -1.778188,-0.931209 -1.862418,-0.592732 -2.032434,-0.25373 -2.031917,0.25373 -1.947168,0.677481 -1.862935,1.015957 -1.60817,1.270209 -1.354957,1.523937 -1.015958,1.777669 -0.762228,1.947685 -0.33848,2.116667 z m 2.539896,-1.01596 0.169499,-1.100707 0.507979,-0.931209 0.762228,-0.762227 0.931209,-0.507982 1.100708,-0.169497 1.015958,0.169497 1.015959,0.507982 0.76171,0.762227 0.423747,0.931209 0.168982,1.100707 -0.168982,1.01596 -0.423747,1.015958 -0.76171,0.762227 -1.015959,0.42323 -1.015958,0.168982 -1.100708,-0.168982 -0.931209,-0.42323 -0.762228,-0.762227 -0.507979,-1.015958 z"
       id="outline_1515"
       sodipodi:nodetypes="ccccccccccccccccccccccccccccccccccccccccccccccccccccccccccccccccccccccccccccccccc"
       inkscape:label="#path6906" />
    <path
       id="warding_1515"
       style="fill:#0000ff;stroke:#000000;stroke-width:0.08819442;stroke-linecap:round;stroke-linejoin:round;stroke-miterlimit:10;stroke-dasharray:none;stroke-opacity:1"
       d="m 90.356872,67.570475 -0.254,-0.423334 -0.08467,-0.254 v -0.423333 l 0.08467,-0.423333 0.08467,-0.169334 0.08467,-0.423333 v -1.016 l -0.254,-0.677333 h -1.778 l 0.338667,0.846666 0.08467,0.338667 -0.08467,0.423333 -0.338667,0.677334 v 0.846666 l 0.254,0.762 0.423334,0.508 0.169333,0.508 -0.254,0.423334 -0.338667,0.254 -0.169333,0.338666 -0.08467,0.338667 v 1.27 l 0.254,0.338667 h 1.862667 l 0.169333,-0.169334 v -0.254 l -0.08467,-0.254 -0.169334,-0.169333 -0.592666,-0.08467 -0.169334,-0.169333 -0.08467,-0.254 0.08467,-0.254 0.762,-0.677333 0.169334,-0.338667 0.08467,-0.338667 v -0.423333 z"
       inkscape:connector-curvature="0"
       sodipodi:nodetypes="cccccccccccccccccccccccccccccccccccccc"
       inkscape:label="#path6784" />
    <path
       id="engrave_1515"
       style="opacity:0.48900003;fill:#00ff00;stroke:#000000;stroke-width:0.08819442;stroke-linecap:round;stroke-linejoin:round;stroke-miterlimit:10;stroke-dasharray:none;stroke-opacity:1"
       d="m 51.283353,67.48597 -0.08467,-1.947368 -0.423333,-1.862667 -0.762,-1.777997 -1.016,-1.524 -1.27,-1.439334 -1.524,-1.185333 -1.693333,-0.846667 -1.862667,-0.592666 -1.862664,-0.254 -1.947334,0.254 -1.862666,0.592666 -1.777999,1.016 -1.524,1.185334 -1.269999,1.524 -1.016,1.693333 -0.677333,1.862664 -0.338667,1.947333 v 1.947334 l 0.338667,1.947333 0.677333,1.862667 1.016,1.69333 1.269999,1.524 1.524,1.27 1.777999,0.931334 1.862666,0.677333 1.947334,0.254 1.862664,-0.254 1.778,-0.592667 1.693333,-0.846666 1.524,-1.185334 1.27,-1.354666 1.016,-1.608664 0.931333,-2.370667 z"
       inkscape:connector-curvature="0"
       sodipodi:nodetypes="ccccccccccccccccccccccccccccccccccc"
       inkscape:label="#path6868" />
    <path
       id="engrave_a1515"
       style="opacity:0.49500002;fill:#00ff00;stroke:#000000;stroke-width:0.08819442;stroke-linecap:butt;stroke-linejoin:miter;stroke-miterlimit:10;stroke-dasharray:none;stroke-opacity:1"
       d="m 50.784948,41.134534 c 0,-5.895763 -4.601914,-10.767057 -10.489491,-11.103572 -5.887541,0.336515 -10.489456,5.207809 -10.489456,11.103572 0,5.895727 4.601915,10.767021 10.489456,11.103536 4.524727,-0.258622 8.440134,-3.235605 10.082898,-8.209647 0.332264,-1.411375 0.406593,-2.151716 0.406593,-2.893889 z"
       inkscape:connector-curvature="0"
       sodipodi:nodetypes="scsccs"
       inkscape:label="#path6970" />
    <text
       id="text7554"
       style="font-variant:normal;font-weight:bold;font-size:4.23333216px;font-family:Helvetica;-inkscape-font-specification:Helvetica-Bold;writing-mode:lr-tb;fill:#231f20;fill-opacity:1;fill-rule:nonzero;stroke:none;stroke-width:0.35277769"
       x="-47.452793"
       y="101.89387"
       transform="rotate(-90)">
      <tspan
         id="tspan7552"
         sodipodi:role="line"
         y="101.89387"
         x="-47.452793 -44.584881 -42.421638 -40.254684 -38.089588"
         style="stroke-width:0.35277769">A1515</tspan>
    </text>
    <text
       id="text7564"
       style="font-variant:normal;font-weight:bold;font-size:4.23333216px;font-family:Helvetica;-inkscape-font-specification:Helvetica-Bold;writing-mode:lr-tb;fill:#231f20;fill-opacity:1;fill-rule:nonzero;stroke:none;stroke-width:0.35277769"
       x="-72.372475"
       y="101.89387"
       transform="rotate(-90)">
      <tspan
         id="tspan7562"
         sodipodi:role="line"
         y="101.89387"
         x="-72.372475 -70.209251 -68.046013 -65.877197"
         style="stroke-width:0.35277769">1515</tspan>
    </text>
    <path
       inkscape:connector-curvature="0"
       id="path8270"
       style="fill:#ffffff;fill-opacity:1;fill-rule:nonzero;stroke:none;stroke-width:0.35277769"
       d="M 77.552234,62.070094 V 53.603429 H 64.49946 v 8.466665 z"
       sodipodi:nodetypes="ccccc" />
    <path
       id="warding_1517"
       style="fill:#0000ff;stroke:#000000;stroke-width:0.08819442;stroke-linecap:round;stroke-linejoin:round;stroke-miterlimit:10;stroke-dasharray:none;stroke-opacity:1"
       d="m 89.256393,125.82879 v 0.42333 l 0.08463,0.16933 0.931368,0.93134 0.08467,0.254 -0.08467,0.254 -0.169333,0.16933 -0.592667,0.16933 -0.169368,0.0847 -0.08463,0.254 v 0.254 l 0.169333,0.16934 h 1.862667 l 0.254,-0.254 v -0.93134 l -0.0847,-0.33866 -0.677299,-0.762 -0.169333,-0.33867 0.169333,-0.33867 0.338667,-0.508 0.08463,-0.59266 -0.253966,-0.508 -0.254,-0.33867 v -0.59267 l 0.507966,-0.93133 v -1.27 h -1.608666 v 1.69333 l -0.254,0.33867 0.0847,0.67733 0.423299,0.508 0.0847,0.42334 -0.254,0.42333 -0.254,0.254 z"
       inkscape:connector-curvature="0"
       sodipodi:nodetypes="ccccccccccccccccccccccccccccccccccc"
       inkscape:label="#path7836" />
    <path
       id="engrave_a1517"
       style="opacity:0.54299999;fill:#00ff00;stroke:#000000;stroke-width:0.08819442;stroke-linecap:round;stroke-linejoin:round;stroke-miterlimit:10;stroke-dasharray:none;stroke-opacity:1"
       d="m 32.884829,91.104324 0.846702,-0.338667 0.761964,-0.508 0.677369,-0.677331 1.016,-1.185333 1.269998,-0.846667 1.439333,-0.592666 1.524,-0.169334 h 6.519296 l 0.762,0.169334 0.762035,0.254 0.592632,0.592666 0.338701,0.592667 0.254,0.762 1.100667,8.297331 -1.100667,8.297326 -0.254,0.762 -0.338701,0.67734 -0.592632,0.508 -0.762035,0.33866 -0.762,0.0847 h -6.519296 l -1.524,-0.16933 -1.439333,-0.508 -1.269998,-0.93133 -1.016,-1.10067 -0.677369,-0.67733 -0.761964,-0.59267 -0.846702,-0.33867 -1.015965,-0.0847 -1.354701,-0.16933 -1.269965,-0.508 -1.185333,-0.67733 -1.015999,-1.016 -0.762036,-1.18533 -0.423298,-1.270003 -0.169333,-1.439333 0.169333,-1.354667 0.423298,-1.354667 0.762036,-1.100666 1.015999,-1.016 1.185333,-0.762 1.269965,-0.423334 1.354701,-0.169333 z"
       inkscape:connector-curvature="0"
       sodipodi:nodetypes="ccccccccccccccccccccccccccccccccccccccccccccc"
       inkscape:label="#path7860" />
    <text
       y="97.577682"
       x="-103.64845"
       id="text7544-3"
       style="font-variant:normal;font-weight:bold;font-size:4.23333216px;font-family:Helvetica;-inkscape-font-specification:Helvetica-Bold;writing-mode:lr-tb;fill:#231f20;fill-opacity:1;fill-rule:nonzero;stroke:none;stroke-width:0.35277769"
       transform="rotate(-90)">
      <tspan
         style="stroke-width:0.35277769"
         id="tspan7542-6"
         sodipodi:role="line"
         y="97.577682"
         x="-103.64845 -100.78247 -98.615417 -96.452209 -94.285156">A1517</tspan>
    </text>
    <path
       id="engrave_1542"
       style="opacity:0.43200001;fill:#00ff00;stroke:#000000;stroke-width:0.08819442;stroke-linecap:round;stroke-linejoin:round;stroke-miterlimit:10;stroke-dasharray:none;stroke-opacity:1"
       d="m 48.923328,178.96475 v -1.86266 l -0.169333,-1.778 -0.423333,-1.778 -0.846702,-1.60867 -1.016,-1.524 -1.354666,-1.18533 -1.523964,-1.016 -1.608667,-0.762 -1.777999,-0.33867 -1.862666,-0.0847 -1.778,0.16933 -1.778034,0.59266 -1.523964,0.84667 -1.439333,1.18533 -1.185334,1.35467 -1.100701,1.778 -0.761965,1.94733 -0.338702,2.11667 v 2.11666 l 0.338702,2.032 0.761965,1.94734 1.100701,1.86266 1.100667,1.27 1.354666,1.10067 1.524,0.84667 1.608666,0.59266 1.693332,0.33867 h 1.693333 l 1.777965,-0.33867 1.608666,-0.59266 1.524035,-0.84667 1.354631,-1.016 1.100666,-1.35467 0.931368,-1.43933 0.592667,-1.60867 0.380982,-1.778 z"
       inkscape:connector-curvature="0"
       sodipodi:nodetypes="cccccccccccccccccccccccccccccccccccccc"
       inkscape:label="#path8842" />
    <path
       id="warding_1542"
       style="fill:#0000ff;stroke:#000000;stroke-width:0.08819442;stroke-linecap:round;stroke-linejoin:round;stroke-miterlimit:10;stroke-dasharray:none;stroke-opacity:1"
       d="m 88.22963,177.27123 v -0.67733 l 0.169299,-0.508 0.338701,-0.67734 h 1.608666 v 0.67734 l -0.254,0.67733 v 0.42333 l 0.169299,0.42334 0.253998,0.42333 0.16937,0.508 v 0.508 l -0.08467,0.33867 -0.254,0.33866 -0.677333,0.59267 -0.08467,0.254 0.08467,0.254 0.169333,0.16933 0.592667,0.16934 0.169333,0.0847 0.08467,0.254 v 0.254 l -0.254,0.254 h -1.862667 l -0.254,-0.33866 v -1.27 l 0.08463,-0.42334 0.254,-0.33866 0.338701,-0.33867 0.169333,-0.33867 -0.08467,-0.33866 -0.592666,-0.67734 z"
       inkscape:connector-curvature="0"
       sodipodi:nodetypes="ccccccccccccccccccccccccccccccccc"
       inkscape:label="#path8896" />
    <text
       y="102.53731"
       x="-182.96564"
       id="text7600-7"
       style="font-variant:normal;font-weight:bold;font-size:4.23333216px;font-family:Helvetica;-inkscape-font-specification:Helvetica-Bold;writing-mode:lr-tb;fill:#231f20;fill-opacity:1;fill-rule:nonzero;stroke:none;stroke-width:0.35277769"
       transform="rotate(-90)">
      <tspan
         style="stroke-width:0.35277769"
         id="tspan7598-5"
         sodipodi:role="line"
         y="102.53731"
         x="-182.96564 -180.8024 -178.63916 -176.47595">1542</tspan>
    </text>
    <path
       id="warding_1518"
       style="fill:#0000ff;stroke:#000000;stroke-width:0.08819442;stroke-linecap:round;stroke-linejoin:round;stroke-miterlimit:10;stroke-dasharray:none;stroke-opacity:1"
       d="m 89.652715,155.30618 0.169333,-0.16933 0.08467,-0.16934 v -0.254 l -0.169333,-0.33866 -0.169334,-0.16934 -0.08467,-0.254 v -0.33866 l 0.254,-0.254 0.169333,-0.33867 -0.254,-0.33867 -0.423333,-0.254 -0.169334,-0.254 0.08467,-0.254 0.677333,-0.762 v -0.254 l -0.08467,-0.16933 -0.508,-0.59267 v -1.35466 h -1.693334 v 0.93133 l 0.338667,0.762 0.08467,0.508 -0.169334,0.508 -0.169333,0.16933 -0.08467,0.254 0.08467,0.254 1.016,1.43934 v 0.33866 l -0.08467,0.16934 -0.169333,0.16933 -0.592667,0.0847 -0.169333,0.16933 -0.08467,0.254 v 0.254 l 0.254,0.254 z"
       inkscape:connector-curvature="0"
       sodipodi:nodetypes="ccccccccccccccccccccccccccccccccccccc"
       inkscape:label="#path7380" />
    <path
       id="engrave_1518"
       style="opacity:0.53399999;fill:#00ff00;stroke:#000000;stroke-width:0.08819442;stroke-linecap:round;stroke-linejoin:round;stroke-miterlimit:10;stroke-dasharray:none;stroke-opacity:1"
       d="m 51.679871,143.53751 -0.169333,-0.93134 -0.423334,-0.84666 -0.677332,-0.762 -0.846667,-0.42334 -1.015999,-0.0847 H 31.275211 l -1.016,0.0847 -0.846667,0.42334 -0.677333,0.762 -0.423333,0.84666 -0.169333,0.93134 v 15.40932 l 0.169333,0.93134 0.423333,0.84666 0.677333,0.67734 0.846667,0.42333 1.016,0.16933 h 17.271995 l 1.015999,-0.16933 0.846667,-0.42333 0.677332,-0.67734 0.423334,-0.84666 0.169333,-0.93134 v -6.64633 z"
       inkscape:connector-curvature="0"
       sodipodi:nodetypes="cccccccccccccccccccccccccc"
       inkscape:label="#path7394" />
    <text
       y="98.205078"
       x="-156.61182"
       id="text7608-3"
       style="font-variant:normal;font-weight:bold;font-size:4.23333216px;font-family:Helvetica;-inkscape-font-specification:Helvetica-Bold;writing-mode:lr-tb;fill:#231f20;fill-opacity:1;fill-rule:nonzero;stroke:none;stroke-width:0.35277769"
       transform="rotate(-90)">
      <tspan
         style="stroke-width:0.35277769"
         id="tspan7606-5"
         sodipodi:role="line"
         y="98.205078"
         x="-156.61182 -154.44862 -152.28157 -150.11833">1518</tspan>
    </text>
    <path
       id="warding_1543"
       style="fill:#0000ff;stroke:#000000;stroke-width:0.08819442;stroke-linecap:round;stroke-linejoin:round;stroke-miterlimit:10;stroke-dasharray:none;stroke-opacity:1"
       d="m 91.465196,207.75294 -0.169334,-0.33863 v -0.3387 l 0.254,-0.4233 0.254,-0.16937 0.169368,-0.33867 -0.08467,-0.33863 -0.169367,-0.254 -0.169334,-0.254 -0.254,-0.42337 0.0847,-0.42333 0.169299,-0.67733 h 1.608667 v 0.16933 l -0.423299,0.76203 v 0.508 l 0.254,0.25397 0.254,0.67733 v 0.67737 l -0.423368,0.59267 -0.08463,0.254 0.08463,0.254 0.592667,0.508 0.169333,0.33866 0.08467,0.4233 v 0.8467 l -0.169299,0.1693 h -1.947368 l -0.254,-0.1693 v -0.254 l 0.0847,-0.254 0.254,-0.16936 0.592667,-0.16934 0.169299,-0.0847 v -0.25397 l -0.08467,-0.16937 z"
       inkscape:connector-curvature="0"
       sodipodi:nodetypes="ccccccccccccccccccccccccccccccccccccc"
       inkscape:label="#path9218" />
    <path
       id="engrave_1543"
       style="opacity:0.43800001;fill:#00ff00;stroke:#000000;stroke-width:0.08819442;stroke-linecap:round;stroke-linejoin:round;stroke-miterlimit:10;stroke-dasharray:none;stroke-opacity:1"
       d="m 48.877834,215.2883 -0.169298,0.76197 -0.423368,0.67733 -0.592632,0.59267 -0.762035,0.33867 -0.762,0.0847 h -6.603998 l -1.439298,-0.16937 -1.439368,-0.59267 -1.269999,-0.84663 -1.015964,-1.10067 -0.677369,-0.762 -0.761999,-0.508 -0.846667,-0.3387 -1.016,-0.1693 -1.354666,-0.0847 -1.27,-0.508 -1.185298,-0.762 -1.015999,-0.93133 -0.762035,-1.18534 -0.423333,-1.35466 -0.169298,-1.3547 0.169298,-1.35464 0.423333,-1.3547 0.762035,-1.1853 1.015999,-0.93136 1.185298,-0.76197 1.27,-0.508 1.354666,-0.16933 1.016,-0.0847 0.846667,-0.33863 0.761999,-0.508 0.677369,-0.76204 1.015964,-1.10067 1.269999,-0.84666 1.439368,-0.59263 1.439298,-0.16937 h 6.603998 l 0.762,0.0847 0.762035,0.33871 0.592632,0.59263 0.423368,0.67733 0.169298,0.76204 0.635018,5.92664 0.29635,2.286 -0.127035,0.80435 z"
       inkscape:connector-curvature="0"
       sodipodi:nodetypes="ccccccccccccccccccccccccccccccccccccccccccccccc"
       inkscape:label="#path9344" />
    <text
       y="99.45797"
       x="-212.39523"
       id="text9432-9"
       style="font-variant:normal;font-weight:bold;font-size:4.23333216px;font-family:Helvetica;-inkscape-font-specification:Helvetica-Bold;writing-mode:lr-tb;fill:#231f20;fill-opacity:1;fill-rule:nonzero;stroke:none;stroke-width:0.35277769"
       transform="rotate(-90)">
      <tspan
         style="stroke-width:0.35277769"
         id="tspan9430-1"
         sodipodi:role="line"
         y="99.45797"
         x="-212.39523 -210.23199 -208.06879 -205.89996">1543</tspan>
    </text>
    <path
       inkscape:connector-curvature="0"
       style="fill:#ff0000;stroke:#000000;stroke-width:0.08819442;stroke-linecap:round;stroke-linejoin:round;stroke-miterlimit:10;stroke-dasharray:none;stroke-opacity:1"
       d="m 41.686861,113.8063 -1.693436,0.25373 -1.52394,0.59273 -1.354955,0.93173 -1.100707,1.18494 -0.761711,0.84698 -1.015959,0.50798 -1.100708,0.16898 -1.439188,0.1695 -1.439706,0.50798 -1.26969,0.76222 -1.015959,1.10071 -0.846976,1.26969 -0.50798,1.43971 -0.168982,1.43919 0.168982,1.52393 0.50798,1.43919 0.846976,1.27021 1.015959,1.01596 1.26969,0.84646 1.439706,0.50798 1.439188,0.1695 1.100708,0.1695 1.015959,0.50798 0.761711,0.76171 1.100707,1.27021 1.354955,0.9312 1.52394,0.59273 1.693436,0.1695 h 6.518982 l 0.931724,-0.0847 0.846461,-0.42323 0.677479,-0.59273 0.507978,-0.76222 0.25373,-0.93121 0.254248,-1.94717 0.338482,-0.67748 0.677479,-0.42323 h 0.761709 l 0.677479,0.42323 0.42323,0.42323 0.507979,0.42323 0.677478,0.0847 0.592728,-0.25373 0.507979,-0.50798 0.1695,-0.67748 v -1.01596 -0.1695 l 0.25373,-0.0847 H 84.13406 l 0.1695,-0.0848 1.015957,-1.10019 0.338482,-0.50798 0.169497,-0.59273 -0.169497,-0.67747 -0.338482,-0.59273 -3.640605,-4.06384 -0.254246,-0.0847 h -22.550742 -0.08475 l -0.338481,0.1695 -0.08475,0.0842 h -1.100709 l -0.25373,-0.0842 v -0.1695 -1.52394 l -0.1695,-0.67748 -0.507979,-0.50798 -0.592728,-0.16949 -0.677478,0.0847 -0.550355,0.38085 -0.380854,0.46612 -0.677479,0.42323 h -0.761708 l -0.677479,-0.42323 -0.338482,-0.76222 -0.254248,-1.94717 -0.25373,-0.84698 -0.507978,-0.76171 -0.677479,-0.67748 -0.846461,-0.33848 -0.931724,-0.1695 z m -8.974646,8.12819 0.93121,0.0842 0.931209,0.50798 0.677478,0.67748 0.42323,0.84697 0.169499,0.93121 -0.169499,1.01596 -0.42323,0.84646 -0.677478,0.67748 -0.931209,0.42323 -0.93121,0.1695 -0.931726,-0.1695 -0.931209,-0.42323 -0.676962,-0.67747 -0.423746,-0.84646 -0.168982,-1.01596 0.168982,-0.93121 0.423746,-0.84698 0.676962,-0.67748 0.931209,-0.50798 z"
       id="outline_1517"
       sodipodi:nodetypes="cccccccccccccccccccccccccccccccccccccccccccccccccccccccccccccccccccccccccccccccccccccccccccccccccccccccc"
       inkscape:label="#path7932-0" />
    <path
       id="engrave_1517"
       style="opacity:0.54299999;fill:#00ff00;stroke:#000000;stroke-width:0.08819442;stroke-linecap:round;stroke-linejoin:round;stroke-miterlimit:10;stroke-dasharray:none;stroke-opacity:1"
       d="m 34.151358,118.63228 0.846702,-0.33867 0.761964,-0.508 0.677369,-0.67733 1.015998,-1.18533 1.269999,-0.84667 1.439334,-0.59267 1.524,-0.16933 h 6.519296 l 0.762,0.16933 0.762034,0.254 0.592632,0.59267 0.338702,0.59267 0.253999,0.762 1.100666,8.29733 -1.100666,8.29733 -0.253999,0.762 -0.338702,0.67734 -0.592632,0.508 -0.762034,0.33866 -0.762,0.0847 h -6.519296 l -1.524,-0.16933 -1.439334,-0.508 -1.269999,-0.93134 -1.015998,-1.10066 -0.677369,-0.67734 -0.761964,-0.59266 -0.846702,-0.33867 -1.015964,-0.0847 -1.354702,-0.16933 -1.269965,-0.508 -1.185333,-0.67733 -1.015999,-1.01601 -0.762036,-1.18533 -0.423297,-1.27 -0.169334,-1.43933 0.169334,-1.35467 0.423297,-1.35466 0.762036,-1.10067 1.015999,-1.016 1.185333,-0.762 1.269965,-0.42333 1.354702,-0.16934 z"
       inkscape:connector-curvature="0"
       sodipodi:nodetypes="ccccccccccccccccccccccccccccccccccccccccccccc"
       inkscape:label="#path7860-9" />
    <text
       y="96.967979"
       x="-132.64395"
       id="text7544-3-3"
       style="font-variant:normal;font-weight:bold;font-size:4.23333216px;font-family:Helvetica;-inkscape-font-specification:Helvetica-Bold;writing-mode:lr-tb;fill:#231f20;fill-opacity:1;fill-rule:nonzero;stroke:none;stroke-width:0.35277769"
       transform="rotate(-90)">
      <tspan
         style="stroke-width:0.35277769"
         id="tspan7542-6-6"
         sodipodi:role="line"
         x="-129.77797 -127.61092 -125.44771 -123.28066">1517</tspan>
    </text>
    <path
       clip-path="url(#clipPathJ)"
       transform="matrix(0.35277769,0,0,-0.35277769,2.8631455,500.03783)"
       inkscape:connector-curvature="0"
       id="path11038"
       style="fill:#0000ff;fill-opacity:1;fill-rule:nonzero;stroke:none"
       d="m 95.1521,550.696 c -0.5743,0.339 -1.0464,0.827 -1.3663,1.412 l -4e-4,-0.002 -0.4937,0.907 c -0.1919,0.351 -0.5596,0.569 -0.959,0.569 -0.4492,0 -0.8525,-0.275 -1.0171,-0.693 l 0.0034,-0.005 -0.6293,-1.605 c -0.1797,-0.456 -0.6207,-0.757 -1.1109,-0.757 h -2.1787 c -0.3569,0 -0.647,0.29 -0.647,0.648 v 5.198 c 0,0.358 0.2901,0.648 0.647,0.648 l 0.791,-0.007 c 0.5303,0 1,-0.342 1.1631,-0.848 l 0.002,0.006 0.0825,-0.272 c 0.1489,-0.46 0.5771,-0.772 1.0605,-0.772 0.2417,0 0.4771,0.078 0.6704,0.224 l -0.0019,-10e-4 1.792,1.35 c 0.2192,0.165 0.4863,0.255 0.7607,0.255 0.4556,0 0.876,-0.245 1.1006,-0.641 l -5e-4,0.001 0.44,-0.762 c 0.1391,-0.245 0.3999,-0.398 0.6816,-0.398 0.2646,0 0.5107,0.134 0.6558,0.355 l -0.0015,-0.002 0.6269,0.961 c 0.2046,0.312 0.5528,0.501 0.9263,0.501 0.4302,0 0.8218,-0.25 1.0039,-0.641 h 0.0029 l 0.1534,-0.33 c 0.1093,-0.236 0.3125,-0.417 0.5586,-0.499 l 0.0019,-0.004 c 0.2891,-0.097 0.5918,-0.146 0.8965,-0.146 0.3623,0 0.7207,0.07 1.0566,0.205 l -0.002,0.003 c 0.1475,0.059 0.2754,0.158 0.3721,0.286 l 0.005,0.003 0.1807,0.247 c 0.2041,0.27 0.5225,0.43 0.8613,0.43 h 1.92 v -4.306 h -1.294 c -0.5351,0 -1.0264,-0.296 -1.2773,-0.769 l 0.004,-0.001 -0.166,-0.308 c -0.2051,-0.387 -0.6055,-0.628 -1.0411,-0.628 -0.3125,0 -0.6132,0.124 -0.8339,0.345 l -0.001,-0.006 -1.5581,1.55 c -0.1455,0.146 -0.3428,0.228 -0.5484,0.228 -0.2734,0 -0.5268,-0.145 -0.667,-0.379 l -0.0019,0.004 -0.6172,-1.041 c -0.2646,-0.443 -0.7432,-0.715 -1.2593,-0.715 -0.2617,0 -0.519,0.069 -0.7446,0.203 l -0.0024,-10e-4" />
    <path
       inkscape:connector-curvature="0"
       style="fill:#ff0000;stroke:#211c1c;stroke-width:0.08819442;stroke-linecap:butt;stroke-linejoin:miter;stroke-miterlimit:4;stroke-dasharray:none;stroke-opacity:1"
       d="m 22.977979,271.86938 c 0,1.97231 1.60421,3.57291 3.58118,3.57291 h 17.347257 c 1.97679,0 3.58117,-1.6006 3.58117,-3.57291 v -0.65164 c 0,-0.79047 0.64304,-1.43144 1.43506,-1.43144 h 2.55281 c 0.28025,0 0.50798,-0.22719 0.50798,-0.50694 v -1.24954 c 0,-0.13988 0.11354,-0.25322 0.25373,-0.25322 l 24.89047,1e-5 c 0.30869,0 0.55914,-0.24979 0.55914,-0.55759 v -0.55759 c 0,-0.62823 0.49858,-1.14361 1.12758,-1.1653 v -10e-4 c 0.36266,-0.0124 0.65061,-0.30903 0.65061,-0.67076 0,-0.16606 -0.0618,-0.32626 -0.1726,-0.44959 l -2.66495,-2.95176 c -0.0483,-0.0532 -0.11618,-0.0832 -0.18811,-0.0832 h -24.20214 c -0.14019,0 -0.25373,-0.11385 -0.25373,-0.25373 v -1.17357 c 0,-0.7276 -0.59169,-1.31723 -1.32085,-1.31723 h -1.73994 c -0.79202,0 -1.43506,-0.64163 -1.43506,-1.43195 v -0.65164 c 0,-1.972 -1.60438,-3.57343 -3.58117,-3.57343 H 26.559159 c -1.97697,0 -3.58118,1.60143 -3.58118,3.57343 z m 2.40657,-7.65431 c 0,-1.52496 1.24025,-2.76263 2.76831,-2.76263 1.52827,0 2.76882,1.23767 2.76882,2.76263 0,1.52481 -1.24055,2.7621 -2.76882,2.7621 -1.52806,0 -2.76831,-1.23729 -2.76831,-2.7621 z"
       id="outline_1655"
       inkscape:label="#path27478" />
    <text
       y="95.605949"
       x="-268.58673"
       id="text9248"
       style="font-variant:normal;font-weight:bold;font-size:4.23333216px;font-family:Helvetica;-inkscape-font-specification:Helvetica-Bold;writing-mode:lr-tb;fill:#231f20;fill-opacity:1;fill-rule:nonzero;stroke:none;stroke-width:0.35277769"
       transform="rotate(-90)">
      <tspan
         style="stroke-width:0.35277769"
         id="tspan9246"
         sodipodi:role="line"
         y="95.605949"
         x="-268.58673 -266.42166 -264.25842 -262.09146">1655</tspan>
    </text>
    <path
       style="fill:#0000ff;stroke:#211c1c;stroke-width:0.08819442;stroke-linecap:butt;stroke-linejoin:round;stroke-miterlimit:4;stroke-dasharray:none;stroke-opacity:1"
       d="m 85.611076,267.77644 h 1.651 c 0.2099,0 0.381,-0.17036 0.381,-0.38015 v -0.63098 c 0,-0.12436 -0.0759,-0.23615 -0.19156,-0.28233 l 0.001,-10e-4 -0.60148,-0.23993 c -0.1711,-0.0681 -0.28258,-0.23307 -0.28258,-0.41634 0,-0.15709 0.0818,-0.30283 0.21696,-0.38397 l -0.001,-10e-4 0.56656,-0.34039 c 0.18097,-0.10919 0.2921,-0.30505 0.2921,-0.51622 v -1.43919 l -0.38382,-0.44022 c -0.0607,-0.0689 -0.0938,-0.15776 -0.0938,-0.24942 v -1.16582 h -1.2319 v 0.50711 c 0,0.19707 -0.1143,0.37621 -0.29281,0.45958 l 8e-4,-8e-4 -0.0854,0.04 c -0.1524,0.0709 -0.24941,0.22324 -0.24941,0.39067 v 1.0287 c 0,0.14608 0.0737,0.28197 0.19614,0.36138 l -8e-4,-10e-4 0.33585,0.21876 c 0.0868,0.0562 0.13899,0.15212 0.13899,0.25513 0,0.10869 -0.0579,0.20908 -0.1524,0.26339 v 1.4e-4 l -0.33867,0.19328 c -0.1016,0.0584 -0.16404,0.16641 -0.16404,0.28318 0,0.0691 0.0219,0.13628 0.0624,0.19208 l 8e-4,2.7e-4 0.52457,0.72245 c 0.0536,0.0736 0.0826,0.16225 0.0826,0.25323 0,0.17191 -0.10265,0.32745 -0.26035,0.39564 l 0.001,-2.6e-4 -0.24271,0.1035 c -0.11148,0.048 -0.18379,0.1578 -0.18379,0.27922 v 0.23822 c 0,0.16779 0.13617,0.30403 0.30444,0.30403 z"
       id="warding_1655"
       inkscape:connector-curvature="0"
       sodipodi:nodetypes="cssscccscccsccsccscccsscccscccscccscccsscc"
       inkscape:label="#path27480" />
    <path
       style="opacity:0.42000002;fill:#00ff00;stroke:#211c1c;stroke-width:0.08819442;stroke-linecap:butt;stroke-linejoin:miter;stroke-miterlimit:4;stroke-dasharray:none;stroke-opacity:1"
       d="m 46.928866,257.16488 v -0.6539 c 0,-1.66465 -1.35411,-3.01583 -3.02239,-3.01583 H 26.559059 c -1.66829,0 -3.02239,1.35118 -3.02239,3.01583 v 15.3574 c 0,1.66465 1.3541,3.01564 3.02239,3.01564 h 17.347417 c 1.66828,0 3.02239,-1.35099 3.02239,-3.01564 v -0.6513 -5.47513 z"
       id="engrave_1655"
       inkscape:connector-curvature="0"
       sodipodi:nodetypes="cssssssssccc"
       inkscape:label="#path10946" />
    <text
       y="97.354179"
       x="-239.6091"
       id="text9256"
       style="font-variant:normal;font-weight:bold;font-size:4.23333216px;font-family:Helvetica;-inkscape-font-specification:Helvetica-Bold;writing-mode:lr-tb;fill:#231f20;fill-opacity:1;fill-rule:nonzero;stroke:none;stroke-width:0.35277769"
       transform="rotate(-90)">
      <tspan
         style="stroke-width:0.35277769"
         id="tspan9254"
         sodipodi:role="line"
         y="97.354179"
         x="-239.6091 -237.44588 -235.28264 -233.11382">1644</tspan>
    </text>
    <path
       id="outline_1644"
       style="fill:#ff0000;stroke:#231f20;stroke-width:0.17638884;stroke-linecap:butt;stroke-linejoin:miter;stroke-miterlimit:10;stroke-dasharray:none;stroke-opacity:1"
       d="m 28.547569,235.15077 c 0,1.7501 1.42215,3.17052 3.17468,3.17052 1.75217,0 3.17447,-1.42042 3.17447,-3.17052 0,-1.75027 -1.4223,-3.17104 -3.17447,-3.17104 -1.75253,0 -3.17468,1.42077 -3.17468,3.17104 z m 21.468627,-7.5408 v 0.83718 c 0,0.83989 0.68266,1.52203 1.52379,1.52203 h 1.92768 c 0.67282,0 1.21889,0.54535 1.21889,1.2175 v 1.26848 c 0,0.13988 0.11387,0.25355 0.25407,0.25355 h 23.7915 c 0.21378,0 0.41769,0.0896 0.56233,0.24736 l -7.9e-4,10e-4 2.41653,2.6379 c 0.32561,0.35553 0.50624,0.81975 0.50624,1.30139 0,0.54431 -0.23001,1.06314 -0.63394,1.42851 l -7.9e-4,-2.6e-4 -0.84314,0.76119 c -0.0462,0.0424 -0.10724,0.0656 -0.17039,0.0656 h -25.62771 c -0.14019,0 -0.25407,0.1137 -0.25407,0.25376 v 1.39505 c 0,0.22409 -0.18189,0.40584 -0.40619,0.40584 h -2.74038 c -0.84112,0 -1.52378,0.68195 -1.52378,1.52202 0,1.94807 -1.55081,3.54313 -3.50055,3.60034 -2.92128,0.0856 -5.84358,0.12831 -8.766062,0.12831 -2.92227,0 -5.84458,-0.0427 -8.76586,-0.12831 -1.949605,-0.0572 -3.500595,-1.6523 -3.500595,-3.60037 v -15.11812 c 0,-1.94786 1.55099,-3.54291 3.50058,-3.60013 2.92128,-0.0854 5.84359,-0.12884 8.76603,-0.12884 2.922487,0 5.844787,0.0434 8.765887,0.12884 1.94974,0.0572 3.50055,1.65227 3.50055,3.60013 z"
       inkscape:connector-curvature="0"
       inkscape:label="#path11030" />
    <path
       inkscape:connector-curvature="0"
       id="engrave_1644"
       style="opacity:0.453;fill:#00ff00;stroke:#231f20;stroke-width:0.17638884;stroke-linecap:butt;stroke-linejoin:miter;stroke-miterlimit:10;stroke-dasharray:none;stroke-opacity:1"
       d="m 49.457576,242.72671 c 0,1.64645 -1.31067,2.99434 -2.95829,3.04274 -2.91574,0.0853 -5.83254,0.12817 -8.749687,0.12799 -2.91695,0 -5.83375,-0.0426 -8.74949,-0.12799 -1.64765,-0.0484 -2.95815,-1.39629 -2.95815,-3.04274 v -15.11776 c 0,-1.64641 1.3105,-2.99413 2.95815,-3.04235 h 1.8e-4 c 2.91556,-0.0854 5.83254,-0.12817 8.74948,-0.12817 2.916977,0 5.833777,0.0427 8.749517,0.12817 1.64762,0.0482 2.95829,1.39594 2.95829,3.04235 v 8.93115 z"
       inkscape:label="#path11034" />
    <path
       inkscape:connector-curvature="0"
       id="warding_1644"
       style="fill:#0000ff;stroke:#231f20;stroke-width:0.088;stroke-linecap:butt;stroke-linejoin:round;stroke-miterlimit:10;stroke-dasharray:none;stroke-opacity:1"
       d="m 87.342683,236.51379 c -0.11959,0.2026 -0.29174,0.36914 -0.49812,0.482 l 8e-4,1.4e-4 -0.31996,0.17416 c -0.12383,0.0677 -0.20074,0.19742 -0.20074,0.33832 0,0.15847 0.097,0.30074 0.24448,0.35881 l 0.002,-0.001 0.56621,0.222 c 0.16082,0.0634 0.267,0.21897 0.267,0.3919 v 0.7686 c 0,0.1259 -0.1023,0.22825 -0.2286,0.22825 h -1.83374 c -0.12629,0 -0.2286,-0.10235 -0.2286,-0.22825 l 0.002,-0.27905 c 0,-0.18708 0.12065,-0.35278 0.29916,-0.41031 l -0.002,-7.1e-4 0.096,-0.0291 c 0.16228,-0.0525 0.27235,-0.20359 0.27235,-0.37412 0,-0.0853 -0.0275,-0.16831 -0.079,-0.2365 l 2.6e-4,6.6e-4 -0.47625,-0.63218 c -0.0582,-0.0773 -0.09,-0.17155 -0.09,-0.26836 0,-0.16072 0.0864,-0.30903 0.22613,-0.38826 l -2.6e-4,1.7e-4 0.26881,-0.15522 c 0.0864,-0.0491 0.14041,-0.14108 0.14041,-0.24045 0,-0.0933 -0.0473,-0.18017 -0.12524,-0.23135 l 7.9e-4,5.3e-4 -0.33902,-0.22115 c -0.11007,-0.0722 -0.17675,-0.19502 -0.17675,-0.32678 0,-0.15176 0.0882,-0.28991 0.22614,-0.35415 v -0.001 l 0.11641,-0.0541 c 0.0833,-0.0386 0.14712,-0.11025 0.17605,-0.19706 l 10e-4,-6.6e-4 c 0.0342,-0.10198 0.0515,-0.20877 0.0515,-0.31626 0,-0.12781 -0.0247,-0.25425 -0.0723,-0.37275 l -0.001,7.1e-4 c -0.0208,-0.052 -0.0557,-0.0972 -0.1009,-0.13127 l -0.001,-0.002 -0.0871,-0.0637 c -0.0953,-0.072 -0.15169,-0.18433 -0.15169,-0.30385 v -0.67735 h 1.51906 v 0.45649 c 0,0.18877 0.10442,0.36209 0.27129,0.45061 l 2.6e-4,-0.001 0.10866,0.0586 c 0.13652,0.0724 0.22154,0.2136 0.22154,0.36727 0,0.11025 -0.0437,0.21633 -0.12171,0.29418 l 0.002,3.5e-4 -0.5468,0.54966 c -0.0515,0.0513 -0.0804,0.12092 -0.0804,0.19346 0,0.0965 0.0511,0.18585 0.1337,0.23531 l -0.001,6.6e-4 0.36724,0.21773 c 0.15628,0.0933 0.25223,0.26219 0.25223,0.44426 0,0.0923 -0.0243,0.18309 -0.0716,0.26267 l 2.7e-4,8.4e-4 z"
       sodipodi:nodetypes="ccccscccsssscccccscccscccscccscccccscccccsccscccscccscccsccc"
       inkscape:label="#path11040" />
    <path
       inkscape:connector-curvature="0"
       style="fill:#ff0000;stroke:#231f20;stroke-width:0.08819442;stroke-linecap:butt;stroke-linejoin:miter;stroke-miterlimit:10;stroke-dasharray:none;stroke-opacity:1"
       d="m 111.23112,83.887761 c 0,2.06051 1.63657,3.74723 3.69383,3.80752 2.92005,0.0858 5.84101,0.12868 8.76226,0.12868 2.92128,0 5.8422,-0.0429 8.76225,-0.12868 2.05726,-0.0603 3.69383,-1.74701 3.69383,-3.80752 v -0.90175 c 0,-0.77103 0.62512,-1.39681 1.39527,-1.39681 0.40188,0 0.78413,0.17346 1.04903,0.47594 l 0.001,0.002 0.50642,0.58187 c 0.2244,0.25636 0.54826,0.40359 0.8888,0.40359 0.6525,0 1.18236,-0.53052 1.18236,-1.1839 v -0.65991 c 0,-0.1402 0.11385,-0.25425 0.25373,-0.25425 h 26.97665 c 0.0677,0 0.13272,-0.0269 0.18035,-0.0744 l -0.003,0.001 0.98392,-0.98341 c 0.33831,-0.33863 0.52865,-0.79806 0.52865,-1.27692 0,-0.44616 -0.16509,-0.87666 -0.46354,-1.2082 l -5.3e-4,-0.001 -3.70365,-4.11861 c -0.0476,-0.0538 -0.11649,-0.0842 -0.1881,-0.0842 h -24.31122 c -0.13988,0 -0.25374,-0.11374 -0.25374,-0.25425 v -1.93528 c 0,-0.649 -0.52623,-1.17512 -1.1746,-1.17512 -0.25598,0 -0.50503,0.0832 -0.709,0.23823 h 10e-4 l -0.90283,0.68475 c -0.24236,0.18326 -0.53813,0.28318 -0.84233,0.28318 -0.77014,0 -1.39526,-0.62637 -1.39526,-1.39733 v -0.90123 c 0,-2.06016 -1.63657,-3.7474 -3.69383,-3.80804 -2.92005,-0.0854 -5.84098,-0.12816 -8.76226,-0.12816 -2.92124,0 -5.84238,0.0428 -8.76225,0.12816 -2.05726,0.0606 -3.69383,1.74788 -3.69383,3.80804 z m 3.27887,-7.59126 c 0,-1.75253 1.42093,-3.17449 3.17138,-3.17449 1.75045,0 3.17086,1.42196 3.17086,3.17449 0,1.75231 -1.42041,3.17448 -3.17086,3.17448 -1.75045,0 -3.17138,-1.42217 -3.17138,-3.17448 z"
       id="outline_1638"
       inkscape:label="#path33873" />
    <path
       inkscape:connector-curvature="0"
       style="fill:#ff0000;stroke:#231f20;stroke-width:0.08819442;stroke-linecap:butt;stroke-linejoin:miter;stroke-miterlimit:10;stroke-dasharray:none;stroke-opacity:1"
       d="m 111.2337,51.100621 c 0,2.05419 1.63674,3.73637 3.69435,3.79666 2.9204,0.0854 5.84169,0.12816 8.76329,0.12816 2.92163,0 5.84289,-0.0427 8.76329,-0.12816 2.05761,-0.0603 3.69435,-1.74247 3.69435,-3.79666 v -0.89865 c 0,-0.76878 0.62511,-1.39268 1.39526,-1.39268 0.40185,0 0.78461,0.17294 1.04955,0.47438 l 10e-4,0.002 0.50643,0.58033 c 0.22443,0.25545 0.54844,0.40204 0.88883,0.40204 0.65267,0 1.18236,-0.52847 1.18236,-1.17977 v -0.65836 c 0,-0.1397 0.11368,-0.25321 0.25373,-0.25321 h 31.42078 c 0.0674,0 0.13221,-0.0264 0.17983,-0.0739 l -0.002,5.3e-4 0.98392,-0.9803 c 0.33832,-0.33761 0.52865,-0.79583 0.52865,-1.27331 0,-0.44492 -0.1656,-0.87399 -0.46405,-1.20458 l -5.3e-4,-5.3e-4 -3.70365,-4.10672 c -0.048,-0.0534 -0.1163,-0.0837 -0.18862,-0.0837 h -28.7543 c -0.14005,0 -0.25373,-0.1137 -0.25373,-0.25322 v -1.9296 h 5.3e-4 c 0,-0.64696 -0.52627,-1.17202 -1.17461,-1.17202 -0.25615,0 -0.5054,0.0834 -0.70951,0.23771 h 0.001 l -0.90279,0.68265 c -0.24254,0.18327 -0.53864,0.28267 -0.84284,0.28267 -0.77015,0 -1.39527,-0.62425 -1.39527,-1.3932 v -0.89865 c 0,-2.05398 -1.63674,-3.73586 -3.69434,-3.79615 -2.9204,-0.0854 -5.84166,-0.12816 -8.7633,-0.12816 -2.92159,0 -5.84288,0.0427 -8.76328,0.12816 -2.05762,0.0603 -3.69435,1.74217 -3.69435,3.79615 z m 3.26853,-7.55251 c 0,-1.74721 1.42076,-3.16518 3.17139,-3.16518 1.75062,0 3.1719,1.41797 3.1719,3.16518 0,1.74699 -1.42128,3.16466 -3.1719,3.16466 -1.75063,0 -3.17139,-1.41767 -3.17139,-3.16466 z"
       id="outline_a1638"
       inkscape:label="#path33913" />
    <text
       id="text32047"
       style="font-variant:normal;font-weight:bold;font-size:4.23333216px;font-family:Helvetica;-inkscape-font-specification:Helvetica-Bold;writing-mode:lr-tb;fill:#231f20;fill-opacity:1;fill-rule:nonzero;stroke:none;stroke-width:0.35277769"
       x="-50.333736"
       y="186.59254"
       transform="rotate(-90)">
      <tspan
         id="tspan32045"
         sodipodi:role="line"
         y="186.59254"
         x="-50.333736 -47.46777 -45.300747 -43.137508 -40.970547"
         style="stroke-width:0.35277769">A1638</tspan>
    </text>
    <path
       style="fill:#0000ff;stroke:#231f20;stroke-width:0.08819442;stroke-linecap:butt;stroke-linejoin:miter;stroke-miterlimit:10;stroke-dasharray:none;stroke-opacity:1"
       d="m 173.701,77.256571 c -0.11042,-0.0721 -0.17639,-0.19516 -0.17639,-0.3271 0,-0.15211 0.0875,-0.29026 0.22507,-0.3545 v -0.001 l 0.11924,-0.0543 c 0.0833,-0.0389 0.14675,-0.11024 0.17568,-0.19742 l -0.001,0.002 c 0.0346,-0.10216 0.0519,-0.20912 0.0519,-0.31679 0,-0.12785 -0.0243,-0.25439 -0.0723,-0.37292 l 0.002,-0.002 c -0.0215,-0.0524 -0.0561,-0.0979 -0.1016,-0.13166 l -7.9e-4,10e-4 -0.0868,-0.0668 c -0.0956,-0.0717 -0.15134,-0.18468 -0.15134,-0.30392 v -1.97329 h 1.51694 l -0.002,1.75214 c 0,0.18877 0.10407,0.36244 0.27058,0.45063 l 7.9e-4,0.001 0.11113,0.0586 c 0.13617,0.0724 0.22119,0.21361 0.22119,0.36795 0,0.11039 -0.0434,0.21633 -0.12136,0.29439 l -7.9e-4,3.5e-4 -0.54645,0.54793 c -0.0508,0.0513 -0.0797,0.12108 -0.0797,0.19361 0,0.0966 0.0508,0.18605 0.13335,0.23544 l 7.9e-4,7.2e-4 0.36653,0.22062 c 0.15664,0.0936 0.25224,0.26254 0.25224,0.44478 0,0.0925 -0.024,0.18345 -0.0716,0.26307 l 7.9e-4,10e-4 c -0.11923,0.20279 -0.29138,0.36951 -0.49741,0.48254 l 8e-4,1.4e-4 -0.31962,0.17173 c -0.12347,0.0677 -0.20073,0.19763 -0.20073,0.3387 0,0.15865 0.0974,0.30106 0.24483,0.35927 l -0.001,-0.001 0.5655,0.22497 c 0.16052,0.0634 0.2667,0.21893 0.2667,0.39218 h 0.003 v 0.76708 c 0,0.12608 -0.10265,0.22842 -0.22895,0.22842 h -1.83127 c -0.12594,0 -0.22789,-0.10234 -0.22789,-0.22842 v -0.27696 c 0,-0.18729 0.1203,-0.35314 0.2981,-0.41071 l 7.9e-4,-7.1e-4 0.096,-0.0319 c 0.16192,-0.0525 0.27199,-0.2038 0.27199,-0.37447 0,-0.0855 -0.0275,-0.16845 -0.079,-0.23672 l 7.9e-4,7.2e-4 -0.47907,-0.63288 c -0.0579,-0.0774 -0.0896,-0.17177 -0.0896,-0.26875 0,-0.1609 0.0861,-0.30935 0.22613,-0.38876 l 0.003,1.4e-4 0.26776,-0.15279 c 0.0871,-0.0493 0.14005,-0.14125 0.14005,-0.24081 0,-0.0933 -0.0469,-0.18033 -0.12488,-0.23145 l -0.002,-0.002 -0.33831,-0.22137 z"
       id="warding_1638"
       inkscape:connector-curvature="0"
       sodipodi:nodetypes="cscccccscccccsccccccscccscccscccccscccccssssscccscccscccscccc"
       inkscape:label="#path48824" />
    <path
       style="opacity:0.47999998;fill:#00ff00;stroke:#231f20;stroke-width:0.08819442;stroke-linecap:butt;stroke-linejoin:miter;stroke-miterlimit:10;stroke-dasharray:none;stroke-opacity:1"
       d="m 135.58485,68.752691 c 0,-1.75835 -1.39647,-3.19772 -3.15193,-3.24937 -2.91454,-0.0855 -5.83029,-0.1289 -8.74606,-0.1289 -2.91575,0 -5.83131,0.0434 -8.74589,0.1289 -1.75564,0.0516 -3.15211,1.49102 -3.15211,3.24937 v 15.13624 c 0,1.75821 1.39647,3.19772 3.15211,3.24923 2.91458,0.0856 5.83014,0.12851 8.74589,0.12851 2.91577,0 5.83152,-0.0429 8.74592,-0.12851 h 1.4e-4 c 1.75546,-0.0515 3.15193,-1.49102 3.15193,-3.24923 v -5.54799 z"
       id="path48822"
       inkscape:connector-curvature="0"
       sodipodi:nodetypes="scscsscsccscs" />
    <text
       y="182.97798"
       x="-81.356331"
       id="text33879"
       style="font-variant:normal;font-weight:bold;font-size:4.23333216px;font-family:Helvetica;-inkscape-font-specification:Helvetica-Bold;writing-mode:lr-tb;fill:#231f20;fill-opacity:1;fill-rule:nonzero;stroke:none;stroke-width:0.35277769"
       transform="rotate(-90)">
      <tspan
         style="stroke-width:0.35277769"
         id="tspan33877"
         sodipodi:role="line"
         y="182.97798"
         x="-81.356331 -79.191246 -77.028008 -74.861046">1638</tspan>
    </text>
    <path
       style="opacity:0.47999998;fill:#00ff00;stroke:#231f20;stroke-width:0.08819442;stroke-linecap:butt;stroke-linejoin:miter;stroke-miterlimit:10;stroke-dasharray:none;stroke-opacity:1"
       d="m 135.59095,36.011421 c 0,-1.75284 -1.39665,-3.18805 -3.15246,-3.23941 -2.91486,-0.0854 -5.83099,-0.12817 -8.74726,-0.12817 -2.9161,0 -5.83201,0.0427 -8.74691,0.12817 -1.75581,0.0514 -3.15246,1.48657 -3.15246,3.23941 v 15.09057 c 0,1.75288 1.39665,3.18808 3.15246,3.23941 2.9149,0.0854 5.83081,0.12799 8.74709,0.12799 2.91609,0 5.83222,-0.0426 8.74708,-0.12799 1.75581,-0.0513 3.15246,-1.48653 3.15246,-3.23941 v -5.53121 z"
       id="engrave_a1638"
       inkscape:connector-curvature="0"
       sodipodi:nodetypes="scscsscscscs"
       inkscape:label="#path48828" />
  </g>
</svg>
